<svg xmlns="http://www.w3.org/2000/svg" xmlns:xlink="http://www.w3.org/1999/xlink" width="450" zoomAndPan="magnify" viewBox="0 0 337.5 361.500003" height="482" preserveAspectRatio="xMidYMid meet" version="1.0"><defs><g/><clipPath id="25d3a33a3c"><path d="M 0.292969 0.0195312 L 336.25 0.0195312 L 336.25 360.984375 L 0.292969 360.984375 Z M 0.292969 0.0195312 " clip-rule="nonzero"/></clipPath></defs><g clip-path="url(#25d3a33a3c)"><path fill="#ff4343" d="M 0.726562 17.613281 C 1 6.261719 8.199219 0.0273438 19.523438 0.0273438 C 22.398438 0.0273438 25.273438 0.0273438 28.136719 0.0273438 C 35.105469 0.148438 41.078125 4.0625 43.152344 10.65625 C 44.074219 13.589844 45.476562 13.953125 48.054688 13.953125 C 83.90625 13.910156 119.753906 13.910156 155.601562 13.953125 C 160.679688 13.953125 165.683594 14.570312 170.613281 15.796875 C 175.542969 17.027344 180.25 18.832031 184.738281 21.21875 C 199.089844 28.800781 213.355469 36.605469 227.632812 44.300781 C 230.039062 45.664062 232.625 46.335938 235.390625 46.308594 C 257.289062 46.199219 279.183594 46.199219 301.070312 46.308594 C 312.769531 46.308594 321.867188 53.191406 324.039062 63.53125 C 325.011719 68.417969 325.121094 73.324219 324.371094 78.25 C 324.1875 79.890625 323.816406 81.488281 323.25 83.042969 C 322.683594 84.59375 321.941406 86.058594 321.023438 87.433594 C 320.105469 88.804688 319.039062 90.050781 317.820312 91.167969 C 316.605469 92.28125 315.269531 93.238281 313.824219 94.03125 C 311.191406 95.503906 310.980469 96.824219 311.769531 99.40625 C 317.421875 117.9375 323.105469 136.488281 328.527344 155.085938 C 332.378906 168.351562 336.296875 181.703125 336.34375 195.652344 C 336.496094 243.480469 336.398438 291.269531 336.34375 339.132812 C 336.34375 352.925781 328.242188 360.917969 314.304688 360.917969 L 71.75 360.917969 C 63.429688 360.917969 61.511719 359.027344 61.511719 350.839844 C 61.511719 297.8125 61.511719 244.777344 61.511719 191.738281 C 61.515625 189.117188 61.902344 186.550781 62.664062 184.042969 C 70.75 156.808594 78.738281 129.542969 86.859375 102.320312 C 87.605469 99.84375 87.519531 99.019531 84.664062 98.230469 C 74.480469 95.515625 65.878906 89.503906 62.71875 79.546875 C 59.972656 70.894531 55.035156 70.421875 48.078125 71.007812 C 45.773438 71.203125 44.984375 71.554688 44.597656 74.074219 C 43.183594 83.523438 36.304688 89.128906 26.667969 89.195312 L 19.6875 89.195312 C 8.253906 89.195312 1.03125 83.097656 0.746094 71.71875 C 0.273438 53.753906 0.265625 35.71875 0.726562 17.613281 Z M 309.410156 62.917969 C 307.140625 59.621094 303.496094 59.410156 299.832031 59.410156 C 249.636719 59.410156 199.441406 59.410156 149.246094 59.410156 L 146.152344 59.410156 L 145.539062 60.421875 C 149.519531 64.257812 153.515625 68.117188 157.488281 71.929688 C 161.460938 75.742188 165.058594 81.4375 169.976562 83.511719 C 174.894531 85.589844 181.003906 84.074219 186.601562 84.074219 C 224.351562 84.074219 262.101562 84.074219 299.855469 84.074219 C 304.351562 84.074219 308.808594 83.667969 310.464844 78.972656 C 312.363281 73.753906 312.914062 67.984375 309.410156 62.917969 Z M 133.554688 343.265625 C 133.554688 347.167969 134.707031 347.871094 138.304688 347.859375 C 196.746094 347.765625 255.179688 347.738281 313.605469 347.785156 C 321.363281 347.785156 323.25 345.761719 323.195312 338.066406 C 322.855469 296.953125 324.050781 255.835938 323.292969 214.71875 C 323.0625 202.257812 322.964844 189.738281 320.804688 177.4375 C 318.707031 165.460938 314.21875 154.050781 310.925781 142.367188 C 306.910156 128.3125 302.664062 114.332031 298.570312 100.296875 C 297.988281 98.308594 297.328125 97.175781 294.773438 97.1875 C 256.730469 97.296875 218.6875 97.320312 180.644531 97.261719 C 180.105469 97.261719 179.546875 97.371094 178.867188 97.4375 C 181.347656 107.332031 179.863281 116.289062 173.015625 123.960938 C 163.578125 134.519531 148.335938 136.046875 136.648438 127.664062 C 130.4375 123.167969 124.480469 118.355469 118.34375 113.757812 C 117.34375 113.011719 116.335938 111.242188 114.953125 112.210938 C 113.910156 112.945312 114.867188 114.484375 115.171875 115.648438 C 120.921875 137.023438 126.675781 158.394531 132.433594 179.769531 C 133.175781 182.550781 133.539062 185.378906 133.53125 188.253906 C 133.554688 239.933594 133.664062 291.597656 133.554688 343.265625 Z M 111.125 347.664062 C 106.644531 343.125 102.664062 339.101562 98.699219 335.066406 C 97.449219 333.792969 96.792969 335.066406 96.101562 335.714844 C 92.269531 339.417969 88.496094 343.167969 83.917969 347.664062 Z M 75.644531 186.519531 C 75.03125 188.339844 74.691406 190.210938 74.625 192.132812 C 74.625 240.105469 74.625 288.070312 74.625 336.035156 L 74.625 338.628906 L 90.261719 322.84375 C 91.511719 321.582031 90.964844 319.988281 90.964844 318.539062 C 90.964844 278.972656 90.964844 239.363281 90.964844 199.71875 C 90.777344 197.921875 90.976562 196.171875 91.558594 194.464844 C 92.894531 191.464844 95.265625 189.992188 98.425781 190.417969 C 98.789062 190.445312 99.144531 190.503906 99.492188 190.59375 C 99.84375 190.683594 100.183594 190.804688 100.511719 190.957031 C 100.839844 191.105469 101.152344 191.285156 101.449219 191.496094 C 101.746094 191.703125 102.019531 191.9375 102.277344 192.191406 C 102.53125 192.449219 102.757812 192.730469 102.964844 193.027344 C 103.167969 193.328125 103.34375 193.644531 103.492188 193.972656 C 103.636719 194.304688 103.753906 194.644531 103.839844 195 C 103.925781 195.351562 103.980469 195.707031 104 196.070312 C 104.109375 197.4375 104.136719 198.808594 104.089844 200.179688 C 104.089844 239.503906 104.089844 278.835938 104.089844 318.175781 C 104.011719 319.394531 104.199219 320.566406 104.660156 321.699219 C 105.117188 322.832031 105.796875 323.804688 106.699219 324.625 C 111.167969 328.855469 115.382812 333.339844 119.738281 337.75 C 121.085938 336.648438 120.484375 335.320312 120.484375 334.222656 C 120.484375 285.863281 120.484375 237.480469 120.484375 189.078125 C 120.484375 181.769531 117.402344 174.988281 115.566406 168.007812 C 110.34375 148.082031 104.945312 128.210938 99.503906 107.914062 C 97.691406 110.199219 97.492188 112.703125 96.824219 114.957031 C 89.691406 138.777344 82.632812 162.621094 75.644531 186.484375 Z M 44.808594 30.890625 C 45.09375 38.96875 44.996094 47.058594 44.808594 55.136719 C 44.808594 57.5 45.464844 58.179688 47.792969 58.113281 C 53.28125 57.960938 58.765625 58.003906 64.253906 58.113281 C 69.742188 58.222656 71.648438 60.203125 72.046875 65.476562 C 72.957031 77.863281 82.019531 86.746094 94.410156 86.359375 C 95.996094 86.269531 97.578125 86.332031 99.152344 86.542969 C 100.726562 86.753906 102.269531 87.109375 103.777344 87.613281 C 105.285156 88.117188 106.734375 88.757812 108.121094 89.535156 C 109.503906 90.3125 110.808594 91.214844 112.023438 92.238281 C 122.25 100.460938 132.808594 108.265625 143.210938 116.265625 C 146.589844 118.871094 150.289062 120.429688 154.613281 119.78125 C 160.210938 118.9375 164.269531 115.890625 166.082031 110.496094 C 167.980469 104.800781 166.609375 99.691406 162.359375 95.425781 C 150.382812 83.394531 138.402344 71.378906 126.410156 59.378906 C 123.84375 56.828125 121.734375 54.210938 123.414062 50.386719 C 125.09375 46.5625 128.417969 46.277344 131.964844 46.277344 C 153.976562 46.320312 175.996094 46.320312 198.015625 46.277344 L 202 46.277344 C 192.121094 40.234375 182.542969 34.1875 171.886719 30.242188 C 166.089844 28.070312 160.097656 26.996094 153.910156 27.011719 C 118.902344 27.097656 83.894531 27.097656 48.878906 27.011719 C 45.796875 26.976562 44.699219 27.59375 44.808594 30.890625 Z M 13.6875 44.859375 C 13.6875 52.808594 13.6875 60.753906 13.6875 68.699219 C 13.6875 75.183594 14.664062 76.160156 20.894531 76.160156 L 25.824219 76.160156 C 30.210938 76.160156 31.703125 74.777344 31.726562 70.304688 C 31.800781 53.3125 31.800781 36.320312 31.726562 19.328125 C 31.726562 14.347656 30.277344 13.164062 25.417969 13.164062 L 20.027344 13.164062 C 15.035156 13.164062 13.695312 14.382812 13.652344 19.371094 C 13.628906 27.902344 13.6875 36.386719 13.6875 44.890625 Z M 13.6875 44.859375 " fill-opacity="1" fill-rule="nonzero"/></g><path fill="#ff4343" d="M 162.691406 226.941406 C 163.546875 224.808594 164.765625 223.050781 167.132812 222.359375 C 167.894531 222.148438 168.667969 222.085938 169.453125 222.171875 C 170.238281 222.257812 170.980469 222.484375 171.675781 222.851562 C 180.25 226.851562 188.886719 230.699219 197.457031 234.679688 C 199.234375 235.503906 201 236.316406 202.820312 237.050781 C 203.207031 237.191406 203.574219 237.363281 203.929688 237.566406 C 204.285156 237.769531 204.617188 238 204.929688 238.261719 C 205.242188 238.523438 205.53125 238.8125 205.796875 239.125 C 206.058594 239.4375 206.292969 239.769531 206.496094 240.125 C 206.703125 240.476562 206.875 240.847656 207.015625 241.230469 C 207.15625 241.613281 207.261719 242.007812 207.332031 242.410156 C 207.402344 242.8125 207.4375 243.21875 207.4375 243.628906 C 207.4375 244.035156 207.402344 244.441406 207.332031 244.84375 C 207.113281 246.558594 207.574219 246.976562 209.164062 246.40625 C 213.433594 244.878906 217.835938 244.890625 222.269531 245.207031 C 227.503906 245.644531 232.679688 246.46875 237.796875 247.679688 C 244.007812 249.144531 250.121094 250.949219 256.132812 253.097656 C 257.824219 253.679688 258.074219 253.539062 258.328125 251.800781 C 258.574219 250.109375 258.519531 248.425781 258.15625 246.753906 C 257.792969 245.078125 257.148438 243.523438 256.222656 242.085938 C 256 241.710938 255.738281 241.359375 255.496094 240.988281 C 255.34375 240.6875 255.261719 240.371094 255.25 240.035156 C 255.242188 239.699219 255.300781 239.378906 255.433594 239.070312 C 255.566406 238.761719 255.757812 238.496094 256.007812 238.273438 C 256.261719 238.050781 256.546875 237.894531 256.867188 237.800781 C 257.460938 237.699219 257.703125 238.195312 257.964844 238.558594 C 259.984375 241.164062 261.257812 244.09375 261.785156 247.351562 C 262.125 249.433594 262.046875 251.5 261.542969 253.550781 C 261.457031 253.773438 261.421875 254.007812 261.433594 254.25 C 261.449219 254.488281 261.515625 254.714844 261.632812 254.925781 C 261.746094 255.140625 261.902344 255.316406 262.09375 255.460938 C 262.289062 255.601562 262.503906 255.699219 262.738281 255.746094 C 265.109375 256.617188 267.382812 257.703125 269.652344 258.78125 C 271.15625 259.496094 271.476562 259.285156 271.847656 257.683594 C 272.960938 252.339844 273.394531 246.945312 273.152344 241.492188 C 273.132812 240.769531 273.226562 240.0625 273.441406 239.367188 C 273.65625 238.675781 273.976562 238.039062 274.402344 237.453125 C 274.828125 236.867188 275.335938 236.367188 275.929688 235.953125 C 276.523438 235.539062 277.167969 235.230469 277.863281 235.03125 C 278.363281 234.878906 278.871094 234.785156 279.394531 234.753906 C 279.917969 234.722656 280.433594 234.75 280.949219 234.839844 C 281.464844 234.929688 281.960938 235.078125 282.441406 235.285156 C 282.921875 235.492188 283.371094 235.753906 283.792969 236.066406 C 284.210938 236.378906 284.585938 236.734375 284.921875 237.136719 C 285.257812 237.539062 285.542969 237.972656 285.777344 238.441406 C 286.007812 238.910156 286.183594 239.398438 286.304688 239.910156 C 286.421875 240.417969 286.480469 240.9375 286.476562 241.460938 C 286.542969 245.933594 286.476562 250.40625 286.476562 254.890625 C 286.476562 257.089844 286.609375 257.277344 288.757812 257.726562 C 289.074219 257.785156 289.378906 257.875 289.679688 257.992188 C 289.976562 258.113281 290.261719 258.257812 290.535156 258.429688 C 290.804688 258.601562 291.058594 258.796875 291.292969 259.015625 C 291.527344 259.234375 291.738281 259.472656 291.929688 259.734375 C 292.117188 259.992188 292.28125 260.265625 292.421875 260.558594 C 292.558594 260.847656 292.667969 261.148438 292.75 261.457031 C 292.832031 261.769531 292.882812 262.085938 292.90625 262.40625 C 292.929688 262.726562 292.921875 263.046875 292.886719 263.363281 C 292.695312 266.148438 292.199219 268.878906 291.402344 271.550781 C 291.28125 271.980469 291.289062 272.410156 291.417969 272.839844 C 291.546875 273.265625 291.777344 273.625 292.117188 273.914062 C 293.273438 275.191406 294.09375 276.65625 294.574219 278.3125 C 294.875 279.417969 294.84375 280.519531 294.488281 281.609375 C 293.03125 285.960938 290.734375 289.804688 287.59375 293.148438 C 280.34375 300.917969 271.210938 304.875 260.820312 305.898438 C 244.65625 307.492188 230.34375 302.808594 218.019531 292.226562 C 214.441406 289.230469 211.425781 285.746094 208.972656 281.773438 C 206.519531 277.800781 204.757812 273.539062 203.6875 268.992188 C 203.027344 266.210938 202.730469 263.386719 202.800781 260.527344 C 202.871094 257.667969 203.308594 254.867188 204.105469 252.121094 C 204.304688 251.429688 204.886719 250.582031 204.414062 250.03125 C 203.941406 249.484375 203.042969 250.097656 202.382812 250.320312 C 201.476562 250.589844 200.554688 250.675781 199.617188 250.570312 C 198.675781 250.464844 197.796875 250.179688 196.972656 249.714844 C 193.921875 248.230469 190.902344 246.714844 187.851562 245.230469 C 182.949219 242.832031 177.976562 240.515625 173.117188 238.042969 C 170.832031 236.886719 168.496094 235.84375 166.203125 234.746094 C 165.394531 234.402344 164.675781 233.925781 164.046875 233.308594 C 163.421875 232.695312 162.925781 231.988281 162.570312 231.183594 C 162.4375 230.855469 162.351562 230.390625 161.8125 230.4375 L 161.8125 228.09375 C 162.691406 227.964844 162.527344 227.335938 162.691406 226.941406 Z M 269.050781 262.617188 C 266.339844 261.519531 263.660156 260.265625 260.984375 259.042969 C 260.324219 258.75 259.953125 258.757812 259.558594 259.484375 C 259.050781 260.429688 258.339844 261.265625 257.746094 262.175781 C 257.417969 262.660156 257.121094 262.695312 256.738281 262.265625 C 256.582031 262.109375 256.417969 261.96875 256.242188 261.835938 C 255.585938 261.277344 254.597656 260.824219 254.355469 260.121094 C 254.113281 259.417969 255.15625 258.738281 255.605469 258.042969 C 256.054688 257.351562 255.9375 257.078125 255.15625 256.804688 C 244.3125 252.976562 233.285156 249.902344 221.761719 249.011719 C 218.367188 248.644531 215.003906 248.828125 211.667969 249.558594 L 211.160156 249.679688 C 208.066406 250.625 207.574219 252.054688 209.429688 254.746094 C 210.21875 255.859375 211.125 256.867188 212.148438 257.769531 C 212.5 253.605469 214.839844 251.078125 218.261719 250.964844 C 218.652344 250.953125 219.042969 250.976562 219.429688 251.035156 C 219.816406 251.09375 220.191406 251.191406 220.5625 251.320312 C 220.929688 251.449219 221.28125 251.613281 221.621094 251.808594 C 221.960938 252.007812 222.277344 252.234375 222.574219 252.488281 C 222.867188 252.746094 223.136719 253.027344 223.382812 253.332031 C 223.625 253.640625 223.835938 253.964844 224.019531 254.3125 C 224.203125 254.660156 224.351562 255.019531 224.464844 255.394531 C 224.582031 255.769531 224.660156 256.148438 224.703125 256.539062 C 225.027344 258.832031 225.6875 261.023438 226.683594 263.113281 C 227.675781 265.203125 228.957031 267.097656 230.53125 268.792969 C 231.152344 269.476562 231.882812 270.003906 232.726562 270.375 C 238.921875 273.167969 245.265625 275.570312 251.753906 277.585938 C 252.335938 277.785156 252.925781 277.8125 253.519531 277.664062 C 261.203125 275.882812 266.425781 271.144531 269.554688 263.957031 C 269.851562 263.242188 269.796875 262.925781 269.050781 262.617188 Z M 216.460938 257.933594 C 216.527344 258.363281 216.617188 258.78125 216.683594 259.222656 C 216.722656 260.058594 216.972656 260.832031 217.429688 261.535156 C 217.886719 262.238281 218.488281 262.777344 219.238281 263.15625 C 220.523438 263.792969 221.664062 264.738281 223.179688 265.351562 C 221.890625 262.777344 221.03125 260.066406 220.601562 257.21875 C 220.347656 255.738281 219.382812 254.914062 218.152344 255.121094 C 217.84375 255.179688 217.5625 255.296875 217.304688 255.476562 C 217.046875 255.65625 216.839844 255.878906 216.675781 256.148438 C 216.515625 256.417969 216.417969 256.707031 216.378906 257.019531 C 216.339844 257.328125 216.371094 257.636719 216.460938 257.933594 Z M 287.792969 261.363281 C 287.449219 261.347656 287.113281 261.296875 286.78125 261.210938 C 286.449219 261.128906 286.125 261.011719 285.816406 260.863281 C 285.507812 260.714844 285.214844 260.539062 284.9375 260.332031 C 284.664062 260.128906 284.410156 259.898438 284.183594 259.644531 C 283.953125 259.386719 283.75 259.113281 283.574219 258.816406 C 283.398438 258.523438 283.253906 258.214844 283.136719 257.890625 C 283.023438 257.566406 282.941406 257.234375 282.890625 256.894531 C 282.84375 256.554688 282.828125 256.210938 282.84375 255.867188 C 282.84375 251.085938 282.84375 246.316406 282.84375 241.582031 C 282.882812 241 282.761719 240.460938 282.472656 239.957031 C 282.1875 239.453125 281.78125 239.070312 281.261719 238.8125 C 280.792969 238.546875 280.292969 238.4375 279.757812 238.472656 C 279.222656 238.511719 278.738281 238.695312 278.3125 239.019531 C 277.863281 239.34375 277.53125 239.761719 277.3125 240.269531 C 277.09375 240.777344 277.019531 241.308594 277.09375 241.855469 C 277.277344 245.8125 277.109375 249.753906 276.601562 253.679688 C 275.503906 261.375 273.230469 268.550781 267.820312 274.367188 C 265.605469 276.679688 263.042969 278.511719 260.140625 279.859375 C 263.484375 280.773438 266.871094 281.476562 270.300781 281.972656 C 272.039062 282.386719 273.796875 282.539062 275.578125 282.421875 C 281.066406 281.609375 284.601562 278.367188 286.828125 273.464844 C 288.296875 270.136719 289.125 266.65625 289.308594 263.023438 C 289.242188 261.96875 288.890625 261.460938 287.726562 261.363281 Z M 290.582031 278.179688 C 290.40625 277.703125 290.121094 277.308594 289.722656 276.992188 C 289 278.027344 288.332031 279.09375 287.53125 280.058594 C 286.730469 281.027344 285.925781 281.828125 285.015625 282.828125 C 286.546875 282.769531 288.007812 282.429688 289.40625 281.804688 C 291.207031 280.90625 291.523438 279.925781 290.582031 278.179688 Z M 207.410156 267.1875 C 209.527344 277.410156 215.253906 285.335938 223.410156 291.542969 C 225.90625 293.488281 228.554688 295.1875 231.363281 296.644531 C 234.171875 298.097656 237.089844 299.285156 240.113281 300.199219 C 243.140625 301.117188 246.226562 301.75 249.367188 302.097656 C 252.511719 302.445312 255.65625 302.503906 258.8125 302.269531 C 261 302.179688 263.167969 301.902344 265.3125 301.441406 C 267.457031 300.980469 269.546875 300.34375 271.585938 299.53125 C 273.621094 298.714844 275.574219 297.734375 277.449219 296.589844 C 279.320312 295.445312 281.082031 294.152344 282.734375 292.710938 C 284.742188 290.917969 286.476562 288.894531 287.9375 286.632812 C 285.542969 287.054688 283.132812 287.242188 280.703125 287.203125 C 271.832031 286.839844 263.144531 285.375 254.640625 282.804688 C 241.957031 279.371094 229.941406 274.332031 218.601562 267.683594 C 214.269531 265.210938 210.390625 262.152344 206.96875 258.515625 C 206.617188 261.433594 206.761719 264.324219 207.410156 267.1875 Z M 200.59375 246.714844 C 199.363281 245.449219 199.132812 244.417969 199.890625 243.417969 C 200.648438 242.417969 201.625 242.394531 203.480469 243.417969 C 203.753906 241.800781 201.667969 240.449219 200.363281 240.546875 C 199.960938 240.574219 199.578125 240.671875 199.210938 240.847656 C 198.847656 241.019531 198.527344 241.253906 198.25 241.546875 C 197.976562 241.84375 197.761719 242.179688 197.613281 242.554688 C 197.464844 242.929688 197.390625 243.320312 197.390625 243.722656 C 197.394531 244.136719 197.484375 244.53125 197.652344 244.910156 C 197.820312 245.289062 198.054688 245.617188 198.359375 245.898438 C 198.660156 246.179688 199.003906 246.390625 199.394531 246.527344 C 199.78125 246.667969 200.183594 246.726562 200.59375 246.703125 Z M 167.792969 231.128906 L 183.429688 238.722656 L 193.164062 243.480469 C 193.234375 242.480469 193.480469 241.527344 193.90625 240.617188 C 194.332031 239.710938 194.910156 238.910156 195.632812 238.21875 C 195.4375 237.832031 195.074219 237.789062 194.789062 237.65625 L 170.25 226.4375 C 168.109375 225.457031 166.453125 226.378906 166.167969 228.722656 C 165.980469 229.964844 166.785156 230.625 167.792969 231.117188 Z M 167.792969 231.128906 " fill-opacity="1" fill-rule="nonzero"/><path fill="#ff4343" d="M 162.128906 227.832031 C 163.328125 222.433594 167.859375 220.578125 172.347656 222.730469 C 182.125 227.4375 192.046875 231.84375 201.921875 236.328125 C 206.925781 238.589844 207.945312 240.207031 207.519531 245.613281 C 207.519531 246.371094 207.726562 246.546875 208.417969 246.296875 C 209.222656 245.980469 210.042969 245.710938 210.875 245.484375 C 216.296875 244.1875 221.742188 244.636719 227.160156 245.363281 C 237.265625 246.808594 247.09375 249.34375 256.636719 252.96875 C 257.734375 253.382812 257.898438 252.96875 258.042969 252.054688 C 258.304688 250.320312 258.25 248.597656 257.882812 246.886719 C 257.515625 245.171875 256.855469 243.578125 255.902344 242.109375 C 255.421875 241.304688 254.277344 240.636719 254.5 239.800781 C 254.71875 238.964844 255.792969 238.449219 256.398438 237.710938 C 257 236.976562 257.40625 237.164062 257.933594 237.832031 C 261.6875 242.648438 263.277344 247.988281 261.882812 254.042969 C 261.785156 254.484375 261.597656 254.824219 262.191406 255.078125 C 265.207031 256.339844 268.203125 257.648438 271.234375 258.945312 C 272.574219 253.636719 273.125 248.25 272.878906 242.777344 C 272.796875 241.820312 272.828125 240.871094 272.976562 239.921875 C 273.066406 239.496094 273.1875 239.085938 273.351562 238.683594 C 273.511719 238.28125 273.710938 237.898438 273.941406 237.535156 C 274.175781 237.171875 274.441406 236.832031 274.734375 236.515625 C 275.03125 236.199219 275.351562 235.914062 275.699219 235.65625 C 276.046875 235.398438 276.414062 235.175781 276.800781 234.988281 C 277.191406 234.796875 277.59375 234.644531 278.011719 234.53125 C 278.425781 234.414062 278.851562 234.339844 279.28125 234.304688 C 279.710938 234.265625 280.140625 234.269531 280.570312 234.3125 C 281 234.355469 281.421875 234.433594 281.835938 234.554688 C 282.253906 234.675781 282.652344 234.832031 283.039062 235.027344 C 283.425781 235.21875 283.789062 235.449219 284.136719 235.707031 C 284.480469 235.96875 284.796875 236.261719 285.089844 236.582031 C 285.378906 236.898438 285.636719 237.242188 285.867188 237.609375 C 286.09375 237.980469 286.285156 238.363281 286.445312 238.765625 C 286.601562 239.171875 286.71875 239.582031 286.800781 240.007812 C 286.882812 240.433594 286.925781 240.863281 286.925781 241.296875 C 286.925781 246.03125 286.925781 250.769531 286.925781 255.507812 C 286.925781 256.605469 287.246094 257.15625 288.453125 257.253906 C 288.800781 257.277344 289.140625 257.332031 289.476562 257.421875 C 289.8125 257.511719 290.136719 257.636719 290.449219 257.789062 C 290.761719 257.945312 291.054688 258.128906 291.332031 258.34375 C 291.605469 258.558594 291.859375 258.796875 292.085938 259.0625 C 292.3125 259.324219 292.515625 259.609375 292.683594 259.914062 C 292.855469 260.214844 292.996094 260.535156 293.105469 260.867188 C 293.210938 261.199219 293.285156 261.535156 293.328125 261.882812 C 293.367188 262.230469 293.375 262.578125 293.347656 262.925781 C 293.261719 265.804688 292.777344 268.613281 291.886719 271.355469 C 291.730469 271.710938 291.695312 272.082031 291.78125 272.460938 C 291.867188 272.84375 292.054688 273.164062 292.347656 273.421875 C 295.277344 276.652344 295.992188 280.082031 294.003906 284.257812 C 289.429688 293.863281 282 300.140625 272.15625 303.644531 C 259.335938 308.226562 246.597656 307.371094 234.097656 302.347656 C 222.136719 297.546875 212.710938 289.742188 206.816406 278.113281 C 202.230469 269.089844 201.207031 259.683594 204.542969 249.976562 C 204.238281 249.789062 204.050781 250.042969 203.832031 250.152344 C 202.792969 250.679688 201.691406 250.933594 200.53125 250.921875 C 199.367188 250.90625 198.273438 250.625 197.246094 250.078125 C 187.320312 245.183594 177.359375 240.347656 167.363281 235.570312 C 164.941406 234.414062 162.875 233.03125 161.988281 230.359375 C 162.527344 230.359375 162.613281 230.777344 162.746094 231.105469 C 163.101562 231.910156 163.597656 232.617188 164.222656 233.234375 C 164.851562 233.847656 165.570312 234.328125 166.378906 234.667969 C 168.671875 235.765625 171.007812 236.867188 173.289062 237.964844 C 178.175781 240.4375 183.167969 242.757812 188.027344 245.152344 C 191.078125 246.636719 194.097656 248.152344 197.148438 249.636719 C 197.972656 250.101562 198.851562 250.386719 199.792969 250.492188 C 200.730469 250.597656 201.652344 250.511719 202.558594 250.242188 C 203.21875 250.023438 204.027344 249.328125 204.589844 249.957031 C 205.148438 250.582031 204.480469 251.351562 204.28125 252.042969 C 203.480469 254.789062 203.046875 257.59375 202.976562 260.453125 C 202.90625 263.3125 203.203125 266.132812 203.863281 268.914062 C 204.933594 273.460938 206.695312 277.722656 209.148438 281.695312 C 211.601562 285.671875 214.617188 289.15625 218.195312 292.148438 C 230.464844 302.734375 244.773438 307.414062 260.996094 305.820312 C 271.386719 304.800781 280.515625 300.84375 287.769531 293.070312 C 290.910156 289.730469 293.207031 285.882812 294.664062 281.53125 C 295.019531 280.441406 295.046875 279.34375 294.75 278.234375 C 294.269531 276.578125 293.449219 275.113281 292.292969 273.839844 C 291.953125 273.546875 291.722656 273.1875 291.59375 272.761719 C 291.464844 272.332031 291.457031 271.90625 291.578125 271.476562 C 292.375 268.800781 292.871094 266.070312 293.0625 263.289062 C 293.097656 262.96875 293.105469 262.648438 293.082031 262.328125 C 293.058594 262.007812 293.007812 261.691406 292.925781 261.382812 C 292.84375 261.070312 292.734375 260.769531 292.597656 260.480469 C 292.457031 260.191406 292.292969 259.914062 292.105469 259.65625 C 291.914062 259.398438 291.703125 259.15625 291.46875 258.9375 C 291.234375 258.71875 290.980469 258.523438 290.710938 258.351562 C 290.4375 258.179688 290.152344 258.035156 289.855469 257.917969 C 289.554688 257.796875 289.25 257.710938 288.933594 257.648438 C 286.738281 257.199219 286.652344 257.054688 286.652344 254.8125 C 286.652344 250.328125 286.652344 245.855469 286.652344 241.382812 C 286.65625 240.859375 286.597656 240.34375 286.480469 239.832031 C 286.359375 239.324219 286.183594 238.832031 285.953125 238.363281 C 285.71875 237.898438 285.433594 237.460938 285.097656 237.058594 C 284.761719 236.660156 284.386719 236.300781 283.964844 235.988281 C 283.546875 235.675781 283.097656 235.414062 282.617188 235.207031 C 282.136719 235 281.640625 234.851562 281.125 234.761719 C 280.609375 234.671875 280.09375 234.644531 279.570312 234.675781 C 279.046875 234.707031 278.539062 234.800781 278.039062 234.953125 C 277.34375 235.152344 276.699219 235.460938 276.105469 235.875 C 275.511719 236.289062 275.003906 236.792969 274.578125 237.375 C 274.152344 237.960938 273.832031 238.601562 273.617188 239.292969 C 273.402344 239.984375 273.308594 240.691406 273.328125 241.414062 C 273.570312 246.867188 273.136719 252.261719 272.023438 257.605469 C 271.628906 259.242188 271.308594 259.453125 269.828125 258.703125 C 267.558594 257.605469 265.285156 256.507812 262.914062 255.671875 C 262.679688 255.621094 262.464844 255.527344 262.269531 255.382812 C 262.078125 255.238281 261.921875 255.0625 261.808594 254.851562 C 261.691406 254.636719 261.625 254.410156 261.609375 254.171875 C 261.597656 253.929688 261.632812 253.699219 261.71875 253.472656 C 262.222656 251.421875 262.300781 249.355469 261.960938 247.273438 C 261.433594 244.015625 260.160156 241.085938 258.140625 238.480469 C 257.867188 238.117188 257.625 237.625 257.042969 237.722656 C 256.722656 237.816406 256.4375 237.976562 256.183594 238.199219 C 255.933594 238.421875 255.742188 238.683594 255.609375 238.992188 C 255.476562 239.300781 255.417969 239.625 255.425781 239.960938 C 255.4375 240.292969 255.519531 240.613281 255.671875 240.910156 C 255.914062 241.273438 256.175781 241.625 256.398438 242.007812 C 257.3125 243.464844 257.941406 245.039062 258.28125 246.722656 C 258.625 248.410156 258.660156 250.101562 258.382812 251.800781 C 258.074219 253.539062 257.824219 253.679688 256.1875 253.097656 C 250.175781 250.949219 244.0625 249.144531 237.851562 247.679688 C 232.71875 246.46875 227.523438 245.644531 222.269531 245.207031 C 217.878906 244.890625 213.488281 244.878906 209.164062 246.40625 C 207.574219 246.976562 207.113281 246.558594 207.332031 244.84375 C 207.402344 244.441406 207.4375 244.035156 207.4375 243.628906 C 207.4375 243.21875 207.402344 242.8125 207.332031 242.410156 C 207.261719 242.007812 207.15625 241.613281 207.015625 241.230469 C 206.875 240.847656 206.703125 240.476562 206.496094 240.125 C 206.292969 239.769531 206.058594 239.4375 205.796875 239.125 C 205.53125 238.8125 205.242188 238.523438 204.929688 238.261719 C 204.617188 238 204.285156 237.769531 203.929688 237.566406 C 203.574219 237.363281 203.207031 237.191406 202.820312 237.050781 C 201 236.316406 199.234375 235.503906 197.457031 234.679688 C 188.886719 230.699219 180.25 226.851562 171.675781 222.851562 C 170.980469 222.484375 170.238281 222.257812 169.453125 222.171875 C 168.667969 222.085938 167.894531 222.148438 167.132812 222.359375 C 164.765625 223.050781 163.546875 224.808594 162.691406 226.941406 C 162.527344 227.335938 162.691406 227.964844 161.976562 228.039062 C 162.03125 227.953125 162.121094 227.898438 162.128906 227.832031 Z M 162.128906 227.832031 " fill-opacity="1" fill-rule="nonzero"/><path fill="#ff4343" d="M 261.917969 211.324219 C 261.507812 211.320312 261.101562 211.28125 260.699219 211.199219 C 260.300781 211.117188 259.910156 211 259.53125 210.839844 C 259.15625 210.683594 258.796875 210.488281 258.457031 210.261719 C 258.117188 210.03125 257.804688 209.773438 257.515625 209.484375 C 257.226562 209.191406 256.96875 208.875 256.742188 208.535156 C 256.515625 208.195312 256.324219 207.835938 256.167969 207.457031 C 256.011719 207.078125 255.894531 206.6875 255.8125 206.285156 C 255.734375 205.882812 255.695312 205.476562 255.695312 205.066406 C 255.695312 204.65625 255.734375 204.25 255.816406 203.847656 C 255.894531 203.445312 256.011719 203.054688 256.167969 202.675781 C 256.324219 202.300781 256.519531 201.9375 256.746094 201.597656 C 256.972656 201.257812 257.230469 200.941406 257.519531 200.652344 C 257.808594 200.363281 258.125 200.101562 258.464844 199.875 C 258.804688 199.644531 259.160156 199.453125 259.539062 199.296875 C 259.917969 199.140625 260.308594 199.019531 260.707031 198.9375 C 261.109375 198.859375 261.515625 198.816406 261.925781 198.816406 C 262.332031 198.816406 262.738281 198.855469 263.140625 198.933594 C 263.542969 199.011719 263.933594 199.128906 264.308594 199.285156 C 264.6875 199.441406 265.046875 199.632812 265.390625 199.859375 C 265.730469 200.085938 266.046875 200.34375 266.335938 200.632812 C 266.628906 200.917969 266.886719 201.234375 267.117188 201.574219 C 267.34375 201.914062 267.539062 202.273438 267.695312 202.652344 C 267.855469 203.027344 267.976562 203.417969 268.058594 203.820312 C 268.136719 204.222656 268.179688 204.628906 268.183594 205.035156 C 268.183594 205.449219 268.144531 205.859375 268.066406 206.261719 C 267.988281 206.667969 267.867188 207.0625 267.710938 207.445312 C 267.554688 207.824219 267.363281 208.1875 267.132812 208.53125 C 266.90625 208.875 266.644531 209.191406 266.355469 209.484375 C 266.0625 209.777344 265.746094 210.039062 265.402344 210.265625 C 265.0625 210.496094 264.699219 210.691406 264.320312 210.847656 C 263.9375 211.003906 263.546875 211.125 263.140625 211.203125 C 262.738281 211.285156 262.328125 211.324219 261.917969 211.324219 Z M 261.917969 202.992188 C 261.648438 203.007812 261.390625 203.074219 261.144531 203.191406 C 260.902344 203.308594 260.6875 203.464844 260.503906 203.667969 C 260.324219 203.867188 260.183594 204.09375 260.089844 204.347656 C 260 204.601562 259.957031 204.863281 259.964844 205.136719 C 259.972656 205.40625 260.03125 205.664062 260.144531 205.914062 C 260.253906 206.160156 260.40625 206.378906 260.601562 206.566406 C 260.796875 206.753906 261.019531 206.894531 261.269531 206.996094 C 261.523438 207.097656 261.78125 207.144531 262.054688 207.144531 C 262.324219 207.140625 262.585938 207.089844 262.835938 206.984375 C 263.082031 206.878906 263.304688 206.734375 263.496094 206.542969 C 263.6875 206.351562 263.839844 206.132812 263.945312 205.882812 C 264.050781 205.632812 264.105469 205.375 264.113281 205.101562 C 264.117188 204.808594 264.058594 204.527344 263.945312 204.257812 C 263.832031 203.992188 263.667969 203.753906 263.457031 203.554688 C 263.242188 203.355469 263 203.203125 262.722656 203.105469 C 262.449219 203.007812 262.164062 202.972656 261.871094 202.992188 Z M 261.917969 202.992188 " fill-opacity="1" fill-rule="nonzero"/><path fill="#ff4343" d="M 276.554688 225.917969 C 276.148438 225.921875 275.742188 225.886719 275.339844 225.808594 C 274.9375 225.730469 274.546875 225.617188 274.167969 225.460938 C 273.789062 225.308594 273.425781 225.117188 273.085938 224.894531 C 272.742188 224.667969 272.425781 224.410156 272.132812 224.125 C 271.84375 223.835938 271.582031 223.523438 271.351562 223.183594 C 271.121094 222.847656 270.925781 222.488281 270.765625 222.113281 C 270.605469 221.734375 270.484375 221.34375 270.402344 220.945312 C 270.316406 220.542969 270.273438 220.136719 270.269531 219.726562 C 270.265625 219.316406 270.300781 218.910156 270.375 218.507812 C 270.453125 218.105469 270.566406 217.714844 270.71875 217.335938 C 270.871094 216.953125 271.058594 216.59375 271.28125 216.25 C 271.507812 215.90625 271.761719 215.585938 272.046875 215.292969 C 272.332031 215 272.644531 214.738281 272.984375 214.507812 C 273.320312 214.273438 273.675781 214.078125 274.054688 213.917969 C 274.429688 213.757812 274.816406 213.632812 275.21875 213.546875 C 275.617188 213.464844 276.023438 213.417969 276.433594 213.414062 C 276.839844 213.40625 277.246094 213.441406 277.648438 213.515625 C 278.050781 213.589844 278.445312 213.703125 278.824219 213.855469 C 279.203125 214.007812 279.566406 214.195312 279.910156 214.417969 C 280.253906 214.640625 280.570312 214.894531 280.863281 215.179688 C 281.15625 215.464844 281.421875 215.777344 281.652344 216.113281 C 281.886719 216.453125 282.082031 216.808594 282.246094 217.183594 C 282.40625 217.5625 282.53125 217.949219 282.617188 218.351562 C 282.703125 218.75 282.75 219.15625 282.757812 219.566406 C 282.761719 219.980469 282.726562 220.386719 282.652344 220.792969 C 282.578125 221.199219 282.464844 221.59375 282.308594 221.976562 C 282.15625 222.363281 281.96875 222.726562 281.742188 223.070312 C 281.519531 223.417969 281.261719 223.738281 280.976562 224.035156 C 280.6875 224.328125 280.371094 224.59375 280.03125 224.824219 C 279.691406 225.058594 279.332031 225.257812 278.953125 225.417969 C 278.574219 225.578125 278.183594 225.703125 277.777344 225.789062 C 277.375 225.871094 276.96875 225.914062 276.554688 225.917969 Z M 276.554688 217.589844 C 276.277344 217.589844 276.011719 217.644531 275.753906 217.753906 C 275.5 217.863281 275.273438 218.015625 275.078125 218.214844 C 274.882812 218.414062 274.734375 218.640625 274.632812 218.902344 C 274.527344 219.160156 274.480469 219.429688 274.484375 219.707031 C 274.488281 219.984375 274.542969 220.25 274.65625 220.507812 C 274.765625 220.761719 274.921875 220.988281 275.121094 221.179688 C 275.320312 221.375 275.550781 221.519531 275.808594 221.621094 C 276.070312 221.722656 276.335938 221.769531 276.617188 221.765625 C 276.894531 221.757812 277.160156 221.699219 277.414062 221.585938 C 277.667969 221.472656 277.890625 221.3125 278.082031 221.113281 C 278.273438 220.910156 278.417969 220.679688 278.515625 220.417969 C 278.617188 220.15625 278.660156 219.890625 278.652344 219.609375 C 278.640625 219.335938 278.578125 219.070312 278.464844 218.816406 C 278.351562 218.566406 278.191406 218.34375 277.992188 218.15625 C 277.789062 217.96875 277.5625 217.824219 277.300781 217.726562 C 277.042969 217.625 276.777344 217.582031 276.5 217.589844 Z M 276.554688 217.589844 " fill-opacity="1" fill-rule="nonzero"/><path fill="#ff4343" d="M 257.878906 225.929688 L 256.320312 225.929688 C 255.9375 225.929688 255.714844 225.929688 255.660156 225.402344 C 255.363281 222.214844 253.75 219.609375 251.941406 217.09375 C 251.382812 216.300781 250.121094 215.675781 250.339844 214.773438 C 250.558594 213.875 251.621094 213.324219 252.324219 212.578125 C 252.421875 212.492188 252.511719 212.398438 252.601562 212.300781 C 252.90625 211.9375 253.148438 212.027344 253.433594 212.355469 C 256.339844 215.652344 258.8125 219.257812 259.621094 223.730469 C 260.019531 225.929688 259.996094 225.929688 257.878906 225.929688 Z M 257.878906 225.929688 " fill-opacity="1" fill-rule="nonzero"/><path fill="#ff4343" d="M 289.164062 230.105469 C 286.96875 230.105469 286.96875 230.105469 286.96875 227.910156 C 286.96875 225.929688 286.96875 225.929688 288.902344 225.929688 C 291.097656 225.929688 291.097656 225.929688 291.097656 228.128906 C 291.085938 230.105469 291.085938 230.105469 289.164062 230.105469 Z M 289.164062 230.105469 " fill-opacity="1" fill-rule="nonzero"/><path fill="#ff4343" d="M 266.042969 232.183594 C 264.023438 232.183594 264.023438 232.183594 264.023438 230.160156 C 264.023438 228.140625 264.023438 228.019531 266.21875 228.019531 C 268.414062 228.019531 268.238281 228.019531 268.238281 230.039062 C 268.238281 232.0625 268.195312 232.183594 266.042969 232.183594 Z M 266.042969 232.183594 " fill-opacity="1" fill-rule="nonzero"/><path fill="#ff4343" d="M 268.269531 250.957031 C 266.074219 250.957031 266.074219 250.957031 266.074219 248.824219 C 266.074219 246.691406 266.074219 246.789062 268.082031 246.789062 C 270.09375 246.789062 270.277344 246.789062 270.277344 248.921875 C 270.277344 251.054688 270.234375 250.957031 268.269531 250.957031 Z M 268.269531 250.957031 " fill-opacity="1" fill-rule="nonzero"/><path fill="#ff4343" d="M 220.578125 257.296875 C 221.007812 260.144531 221.871094 262.855469 223.15625 265.429688 C 221.640625 264.78125 220.5 263.835938 219.21875 263.230469 C 218.46875 262.855469 217.863281 262.316406 217.40625 261.609375 C 216.949219 260.90625 216.699219 260.136719 216.660156 259.296875 C 216.59375 258.859375 216.507812 258.441406 216.441406 258.011719 C 216.351562 257.714844 216.328125 257.414062 216.371094 257.105469 C 216.410156 256.796875 216.511719 256.511719 216.671875 256.246094 C 216.832031 255.980469 217.039062 255.761719 217.292969 255.585938 C 217.546875 255.40625 217.828125 255.289062 218.128906 255.230469 C 219.359375 254.945312 220.324219 255.769531 220.578125 257.296875 Z M 220.578125 257.296875 " fill-opacity="1" fill-rule="nonzero"/><path fill="#ff4343" d="M 287.550781 280.003906 C 288.332031 279.035156 289 277.972656 289.746094 276.9375 C 290.140625 277.253906 290.425781 277.648438 290.601562 278.125 C 291.546875 279.925781 291.226562 280.90625 289.40625 281.75 C 288.007812 282.375 286.546875 282.714844 285.015625 282.773438 C 285.949219 281.773438 286.804688 280.9375 287.550781 280.003906 Z M 287.550781 280.003906 " fill-opacity="1" fill-rule="nonzero"/><path fill="#ff4343" d="M 255.761719 269.726562 C 253.566406 269.726562 253.566406 269.726562 253.566406 267.585938 C 253.566406 265.441406 253.566406 265.5625 255.585938 265.5625 C 257.605469 265.5625 257.78125 265.5625 257.78125 267.761719 C 257.78125 269.957031 257.78125 269.726562 255.761719 269.726562 Z M 255.761719 269.726562 " fill-opacity="1" fill-rule="nonzero"/><path fill="#ff4343" d="M 275.722656 280.210938 C 273.605469 282.039062 273.582031 282.015625 272.011719 279.664062 C 271.933594 279.507812 271.839844 279.367188 271.726562 279.234375 C 271.132812 278.640625 271.332031 278.277344 271.96875 277.839844 C 273.777344 276.761719 275.101562 275.257812 275.953125 273.332031 C 276.445312 271.949219 277.171875 271.53125 278.269531 271.816406 L 279.265625 271.816406 C 280.8125 271.816406 280.824219 271.816406 280.363281 273.367188 C 279.960938 274.71875 279.363281 275.980469 278.570312 277.148438 C 277.777344 278.316406 276.828125 279.339844 275.722656 280.210938 Z M 275.722656 280.210938 " fill-opacity="1" fill-rule="nonzero"/><g fill="#ff4343" fill-opacity="1"><g transform="translate(168.272638, 169.139741)"><g><path d="M 4.5 0.484375 C 3.457031 0.484375 2.738281 0.179688 2.34375 -0.421875 C 1.957031 -1.035156 1.765625 -1.785156 1.765625 -2.671875 C 1.765625 -2.671875 1.765625 -2.894531 1.765625 -3.34375 C 1.765625 -3.789062 1.773438 -4.304688 1.796875 -4.890625 C 1.816406 -5.484375 1.828125 -6.015625 1.828125 -6.484375 C 1.859375 -8.085938 1.878906 -9.617188 1.890625 -11.078125 C 1.910156 -12.546875 1.921875 -13.976562 1.921875 -15.375 C 1.921875 -17.476562 1.910156 -19.582031 1.890625 -21.6875 C 1.878906 -23.789062 1.859375 -26.039062 1.828125 -28.4375 C 1.828125 -29.289062 1.789062 -30.347656 1.71875 -31.609375 C 1.644531 -32.878906 1.609375 -33.976562 1.609375 -34.90625 C 1.609375 -36.050781 1.863281 -36.863281 2.375 -37.34375 C 2.894531 -37.832031 3.644531 -38.128906 4.625 -38.234375 C 5.613281 -38.335938 6.785156 -38.390625 8.140625 -38.390625 C 10.035156 -38.390625 11.597656 -37.914062 12.828125 -36.96875 C 14.054688 -36.03125 15.019531 -34.789062 15.71875 -33.25 C 16.414062 -31.71875 16.914062 -30.066406 17.21875 -28.296875 C 17.519531 -26.535156 17.671875 -24.832031 17.671875 -23.1875 C 17.671875 -19.9375 16.882812 -17.375 15.3125 -15.5 C 13.738281 -13.625 11.703125 -12.6875 9.203125 -12.6875 C 8.640625 -12.65625 8.171875 -12.578125 7.796875 -12.453125 C 7.421875 -12.328125 7.234375 -11.816406 7.234375 -10.921875 L 7.234375 -2.671875 C 7.234375 -1.785156 7.035156 -1.035156 6.640625 -0.421875 C 6.242188 0.179688 5.53125 0.484375 4.5 0.484375 Z M 9.421875 -18.796875 C 10.316406 -18.796875 11.03125 -19.359375 11.5625 -20.484375 C 12.101562 -21.609375 12.375 -23.097656 12.375 -24.953125 C 12.375 -26.554688 12.175781 -28.007812 11.78125 -29.3125 C 11.382812 -30.613281 10.890625 -31.648438 10.296875 -32.421875 C 9.710938 -33.191406 9.082031 -33.578125 8.40625 -33.578125 C 7.757812 -33.578125 7.375 -33.265625 7.25 -32.640625 C 7.125 -32.015625 7.0625 -31.039062 7.0625 -29.71875 L 7.125 -21.265625 C 7.125 -20.546875 7.300781 -19.953125 7.65625 -19.484375 C 8.007812 -19.023438 8.597656 -18.796875 9.421875 -18.796875 Z M 9.421875 -18.796875 "/></g></g></g><g fill="#ff4343" fill-opacity="1"><g transform="translate(188.030482, 169.139741)"><g><path d="M 15.578125 -8.140625 C 17.179688 -7.742188 17.789062 -6.851562 17.40625 -5.46875 C 17.050781 -4.144531 16.253906 -2.921875 15.015625 -1.796875 C 13.785156 -0.671875 12.007812 -0.109375 9.6875 -0.109375 C 6.875 -0.109375 4.820312 -1.445312 3.53125 -4.125 C 2.25 -6.800781 1.609375 -10.515625 1.609375 -15.265625 C 1.609375 -18.222656 1.984375 -20.804688 2.734375 -23.015625 C 3.484375 -25.234375 4.507812 -26.945312 5.8125 -28.15625 C 7.113281 -29.375 8.585938 -29.984375 10.234375 -29.984375 C 12.660156 -29.984375 14.523438 -28.945312 15.828125 -26.875 C 17.128906 -24.8125 17.78125 -21.476562 17.78125 -16.875 C 17.78125 -15.757812 17.535156 -14.835938 17.046875 -14.109375 C 16.566406 -13.378906 15.648438 -12.867188 14.296875 -12.578125 C 13.796875 -12.503906 13.117188 -12.453125 12.265625 -12.421875 C 11.410156 -12.390625 10.5 -12.390625 9.53125 -12.421875 C 8.5625 -12.453125 7.648438 -12.523438 6.796875 -12.640625 C 6.972656 -10.242188 7.363281 -8.285156 7.96875 -6.765625 C 8.582031 -5.253906 9.265625 -4.5 10.015625 -4.5 C 10.765625 -4.5 11.359375 -4.785156 11.796875 -5.359375 C 12.242188 -5.929688 12.523438 -6.445312 12.640625 -6.90625 C 12.816406 -7.550781 13.179688 -7.960938 13.734375 -8.140625 C 14.285156 -8.316406 14.898438 -8.316406 15.578125 -8.140625 Z M 9.953125 -25.65625 C 9.171875 -25.65625 8.457031 -24.832031 7.8125 -23.1875 C 7.175781 -21.539062 6.800781 -19.414062 6.6875 -16.8125 C 7.4375 -16.78125 8.3125 -16.753906 9.3125 -16.734375 C 10.3125 -16.710938 11.097656 -16.722656 11.671875 -16.765625 C 11.960938 -16.796875 12.222656 -16.875 12.453125 -17 C 12.679688 -17.125 12.847656 -17.4375 12.953125 -17.9375 C 13.066406 -18.4375 13.066406 -19.257812 12.953125 -20.40625 C 12.816406 -21.789062 12.515625 -23.007812 12.046875 -24.0625 C 11.585938 -25.125 10.890625 -25.65625 9.953125 -25.65625 Z M 9.953125 -25.65625 "/></g></g></g><g fill="#ff4343" fill-opacity="1"><g transform="translate(207.413514, 169.139741)"><g><path d="M 10.8125 0.046875 C 8.851562 0.046875 7.238281 -0.421875 5.96875 -1.359375 C 4.695312 -2.304688 3.703125 -3.535156 2.984375 -5.046875 C 2.273438 -6.566406 1.78125 -8.210938 1.5 -9.984375 C 1.21875 -11.753906 1.078125 -13.476562 1.078125 -15.15625 C 1.078125 -18.582031 1.503906 -21.425781 2.359375 -23.6875 C 3.210938 -25.957031 4.363281 -27.65625 5.8125 -28.78125 C 7.257812 -29.90625 8.835938 -30.46875 10.546875 -30.46875 C 11.617188 -30.46875 12.429688 -30.285156 12.984375 -29.921875 C 13.535156 -29.566406 13.8125 -29.390625 13.8125 -29.390625 L 13.703125 -34.75 C 13.703125 -35.570312 13.90625 -36.269531 14.3125 -36.84375 C 14.726562 -37.414062 15.472656 -37.703125 16.546875 -37.703125 C 17.617188 -37.703125 18.34375 -37.421875 18.71875 -36.859375 C 19.09375 -36.304688 19.28125 -35.625 19.28125 -34.8125 C 19.28125 -34.09375 19.269531 -33.234375 19.25 -32.234375 C 19.226562 -31.234375 19.195312 -30.242188 19.15625 -29.265625 C 19.125 -28.285156 19.097656 -27.445312 19.078125 -26.75 C 19.066406 -26.050781 19.0625 -25.613281 19.0625 -25.4375 C 19.0625 -24.144531 19.078125 -22.625 19.109375 -20.875 C 19.148438 -19.132812 19.175781 -17.394531 19.1875 -15.65625 C 19.207031 -13.925781 19.21875 -12.472656 19.21875 -11.296875 C 19.21875 -8.265625 18.859375 -5.9375 18.140625 -4.3125 C 17.429688 -2.6875 16.453125 -1.550781 15.203125 -0.90625 C 13.953125 -0.269531 12.488281 0.046875 10.8125 0.046875 Z M 10.8125 -4.4375 C 12.0625 -4.4375 12.945312 -5.238281 13.46875 -6.84375 C 13.988281 -8.457031 14.25 -11.265625 14.25 -15.265625 C 14.25 -18.078125 14.128906 -20.234375 13.890625 -21.734375 C 13.660156 -23.234375 13.285156 -24.269531 12.765625 -24.84375 C 12.253906 -25.414062 11.535156 -25.703125 10.609375 -25.703125 C 9.390625 -25.703125 8.414062 -24.765625 7.6875 -22.890625 C 6.957031 -21.015625 6.59375 -18.4375 6.59375 -15.15625 C 6.59375 -13.363281 6.769531 -11.644531 7.125 -10 C 7.476562 -8.363281 7.96875 -7.023438 8.59375 -5.984375 C 9.21875 -4.953125 9.957031 -4.4375 10.8125 -4.4375 Z M 10.8125 -4.4375 "/></g></g></g><g fill="#ff4343" fill-opacity="1"><g transform="translate(228.295788, 169.139741)"><g><path d="M 15.578125 -8.140625 C 17.179688 -7.742188 17.789062 -6.851562 17.40625 -5.46875 C 17.050781 -4.144531 16.253906 -2.921875 15.015625 -1.796875 C 13.785156 -0.671875 12.007812 -0.109375 9.6875 -0.109375 C 6.875 -0.109375 4.820312 -1.445312 3.53125 -4.125 C 2.25 -6.800781 1.609375 -10.515625 1.609375 -15.265625 C 1.609375 -18.222656 1.984375 -20.804688 2.734375 -23.015625 C 3.484375 -25.234375 4.507812 -26.945312 5.8125 -28.15625 C 7.113281 -29.375 8.585938 -29.984375 10.234375 -29.984375 C 12.660156 -29.984375 14.523438 -28.945312 15.828125 -26.875 C 17.128906 -24.8125 17.78125 -21.476562 17.78125 -16.875 C 17.78125 -15.757812 17.535156 -14.835938 17.046875 -14.109375 C 16.566406 -13.378906 15.648438 -12.867188 14.296875 -12.578125 C 13.796875 -12.503906 13.117188 -12.453125 12.265625 -12.421875 C 11.410156 -12.390625 10.5 -12.390625 9.53125 -12.421875 C 8.5625 -12.453125 7.648438 -12.523438 6.796875 -12.640625 C 6.972656 -10.242188 7.363281 -8.285156 7.96875 -6.765625 C 8.582031 -5.253906 9.265625 -4.5 10.015625 -4.5 C 10.765625 -4.5 11.359375 -4.785156 11.796875 -5.359375 C 12.242188 -5.929688 12.523438 -6.445312 12.640625 -6.90625 C 12.816406 -7.550781 13.179688 -7.960938 13.734375 -8.140625 C 14.285156 -8.316406 14.898438 -8.316406 15.578125 -8.140625 Z M 9.953125 -25.65625 C 9.171875 -25.65625 8.457031 -24.832031 7.8125 -23.1875 C 7.175781 -21.539062 6.800781 -19.414062 6.6875 -16.8125 C 7.4375 -16.78125 8.3125 -16.753906 9.3125 -16.734375 C 10.3125 -16.710938 11.097656 -16.722656 11.671875 -16.765625 C 11.960938 -16.796875 12.222656 -16.875 12.453125 -17 C 12.679688 -17.125 12.847656 -17.4375 12.953125 -17.9375 C 13.066406 -18.4375 13.066406 -19.257812 12.953125 -20.40625 C 12.816406 -21.789062 12.515625 -23.007812 12.046875 -24.0625 C 11.585938 -25.125 10.890625 -25.65625 9.953125 -25.65625 Z M 9.953125 -25.65625 "/></g></g></g><g fill="#ff4343" fill-opacity="1"><g transform="translate(247.67882, 169.139741)"><g><path d="M 2.9375 0.53125 C 2.195312 0.53125 1.664062 0.359375 1.34375 0.015625 C 1.019531 -0.316406 0.859375 -0.710938 0.859375 -1.171875 C 0.859375 -1.492188 0.910156 -1.835938 1.015625 -2.203125 C 1.117188 -2.484375 1.296875 -3.238281 1.546875 -4.46875 C 1.796875 -5.695312 2.097656 -7.203125 2.453125 -8.984375 C 2.816406 -10.773438 3.191406 -12.707031 3.578125 -14.78125 C 3.972656 -16.851562 4.359375 -18.882812 4.734375 -20.875 C 5.109375 -22.875 5.445312 -24.695312 5.75 -26.34375 C 6.0625 -27.988281 6.285156 -29.253906 6.421875 -30.140625 C 6.535156 -30.828125 6.671875 -31.75 6.828125 -32.90625 C 6.984375 -34.0625 7.0625 -35 7.0625 -35.71875 C 7.0625 -36.425781 7.320312 -36.992188 7.84375 -37.421875 C 8.363281 -37.859375 9.101562 -38.078125 10.0625 -38.078125 C 11.03125 -38.078125 11.769531 -37.859375 12.28125 -37.421875 C 12.800781 -36.992188 13.0625 -36.425781 13.0625 -35.71875 C 13.0625 -35 13.140625 -34.0625 13.296875 -32.90625 C 13.460938 -31.75 13.597656 -30.828125 13.703125 -30.140625 C 13.847656 -29.253906 14.070312 -27.988281 14.375 -26.34375 C 14.675781 -24.695312 15.015625 -22.875 15.390625 -20.875 C 15.765625 -18.882812 16.148438 -16.851562 16.546875 -14.78125 C 16.941406 -12.707031 17.316406 -10.773438 17.671875 -8.984375 C 18.023438 -7.203125 18.335938 -5.695312 18.609375 -4.46875 C 18.878906 -3.238281 19.046875 -2.484375 19.109375 -2.203125 C 19.222656 -1.835938 19.28125 -1.492188 19.28125 -1.171875 C 19.28125 -0.710938 19.117188 -0.316406 18.796875 0.015625 C 18.472656 0.359375 17.9375 0.53125 17.1875 0.53125 C 16.1875 0.53125 15.453125 0.414062 14.984375 0.1875 C 14.523438 -0.0390625 14.171875 -0.585938 13.921875 -1.453125 C 13.773438 -2.054688 13.648438 -2.570312 13.546875 -3 C 13.441406 -3.425781 13.316406 -3.816406 13.171875 -4.171875 C 12.992188 -4.710938 12.679688 -5.175781 12.234375 -5.5625 C 11.785156 -5.957031 11.0625 -6.15625 10.0625 -6.15625 C 9.0625 -6.15625 8.335938 -5.957031 7.890625 -5.5625 C 7.453125 -5.175781 7.144531 -4.710938 6.96875 -4.171875 C 6.820312 -3.816406 6.703125 -3.425781 6.609375 -3 C 6.523438 -2.570312 6.394531 -2.054688 6.21875 -1.453125 C 5.96875 -0.585938 5.609375 -0.0390625 5.140625 0.1875 C 4.671875 0.414062 3.9375 0.53125 2.9375 0.53125 Z M 10.0625 -10.609375 C 10.601562 -10.609375 11.066406 -10.6875 11.453125 -10.84375 C 11.847656 -11 12.007812 -11.421875 11.9375 -12.109375 C 11.90625 -12.421875 11.832031 -13.050781 11.71875 -14 C 11.613281 -14.945312 11.476562 -16.007812 11.3125 -17.1875 C 11.15625 -18.363281 11.003906 -19.515625 10.859375 -20.640625 C 10.722656 -21.765625 10.582031 -22.691406 10.4375 -23.421875 C 10.300781 -24.160156 10.175781 -24.53125 10.0625 -24.53125 C 9.957031 -24.53125 9.832031 -24.160156 9.6875 -23.421875 C 9.550781 -22.691406 9.410156 -21.765625 9.265625 -20.640625 C 9.117188 -19.515625 8.960938 -18.363281 8.796875 -17.1875 C 8.640625 -16.007812 8.507812 -14.945312 8.40625 -14 C 8.300781 -13.050781 8.226562 -12.421875 8.1875 -12.109375 C 8.113281 -11.421875 8.28125 -11 8.6875 -10.84375 C 9.101562 -10.6875 9.5625 -10.609375 10.0625 -10.609375 Z M 10.0625 -10.609375 "/></g></g></g><g fill="#ff4343" fill-opacity="1"><g transform="translate(268.561094, 169.139741)"><g><path d="M 4.5 -32.234375 C 4.175781 -32.234375 3.90625 -32.285156 3.6875 -32.390625 C 3.375 -32.566406 3.21875 -32.890625 3.21875 -33.359375 C 3.21875 -34.035156 3.46875 -34.785156 3.96875 -35.609375 C 4.175781 -36.035156 4.382812 -36.410156 4.59375 -36.734375 C 4.8125 -37.054688 5.171875 -37.660156 5.671875 -38.546875 C 6.171875 -39.484375 6.707031 -39.984375 7.28125 -40.046875 C 7.851562 -40.117188 8.476562 -40.15625 9.15625 -40.15625 C 9.6875 -40.15625 10.175781 -40.054688 10.625 -39.859375 C 11.070312 -39.671875 11.296875 -39.359375 11.296875 -38.921875 C 11.296875 -38.609375 11.171875 -38.269531 10.921875 -37.90625 C 10.566406 -37.40625 10.101562 -36.804688 9.53125 -36.109375 C 8.957031 -35.421875 8.398438 -34.78125 7.859375 -34.1875 C 7.328125 -33.601562 6.9375 -33.203125 6.6875 -32.984375 C 6.082031 -32.484375 5.351562 -32.234375 4.5 -32.234375 Z M 4.5 0 C 2.675781 0 1.765625 -0.925781 1.765625 -2.78125 C 1.765625 -2.78125 1.765625 -3.144531 1.765625 -3.875 C 1.765625 -4.613281 1.785156 -5.25 1.828125 -5.78125 C 1.859375 -7.03125 1.875 -8.234375 1.875 -9.390625 C 1.875 -10.554688 1.875 -11.691406 1.875 -12.796875 C 1.875 -14.472656 1.875 -16.023438 1.875 -17.453125 C 1.875 -18.878906 1.859375 -20.519531 1.828125 -22.375 C 1.828125 -23.09375 1.789062 -23.890625 1.71875 -24.765625 C 1.644531 -25.640625 1.609375 -26.46875 1.609375 -27.25 C 1.609375 -27.71875 1.648438 -28.164062 1.734375 -28.59375 C 1.828125 -29.019531 2.066406 -29.375 2.453125 -29.65625 C 2.847656 -29.945312 3.492188 -30.09375 4.390625 -30.09375 C 5.742188 -30.09375 6.582031 -29.832031 6.90625 -29.3125 C 7.226562 -28.800781 7.390625 -28.296875 7.390625 -27.796875 C 7.390625 -26.929688 7.351562 -26.015625 7.28125 -25.046875 C 7.207031 -24.085938 7.171875 -23.195312 7.171875 -22.375 L 7.171875 -14.1875 L 7.125 -9.90625 C 7.125 -9.257812 7.128906 -8.585938 7.140625 -7.890625 C 7.160156 -7.203125 7.171875 -6.5 7.171875 -5.78125 C 7.242188 -5.25 7.28125 -4.613281 7.28125 -3.875 C 7.28125 -3.144531 7.28125 -2.78125 7.28125 -2.78125 C 7.28125 -2.101562 7.144531 -1.46875 6.875 -0.875 C 6.613281 -0.289062 5.820312 0 4.5 0 Z M 4.5 0 "/></g></g></g></svg>