<svg xmlns="http://www.w3.org/2000/svg" xmlns:xlink="http://www.w3.org/1999/xlink" width="824" zoomAndPan="magnify" viewBox="0 0 618 378.749986" height="505" preserveAspectRatio="xMidYMid meet" version="1.0"><defs><g/><clipPath id="676f4e72d7"><path d="M 460.378906 202.195312 L 617.484375 202.195312 L 617.484375 371.585938 L 460.378906 371.585938 Z M 460.378906 202.195312 " clip-rule="nonzero"/></clipPath></defs><g fill="#ff4343" fill-opacity="1"><g transform="translate(70.372706, 266.204658)"><g><path d="M 16.65625 1.78125 C 12.820312 1.78125 10.175781 0.660156 8.71875 -1.578125 C 7.269531 -3.828125 6.546875 -6.601562 6.546875 -9.90625 C 6.546875 -9.90625 6.546875 -10.726562 6.546875 -12.375 C 6.546875 -14.03125 6.578125 -15.945312 6.640625 -18.125 C 6.703125 -20.3125 6.734375 -22.265625 6.734375 -23.984375 C 6.867188 -29.929688 6.96875 -35.613281 7.03125 -41.03125 C 7.101562 -46.445312 7.140625 -51.734375 7.140625 -56.890625 C 7.140625 -64.679688 7.101562 -72.472656 7.03125 -80.265625 C 6.96875 -88.066406 6.867188 -96.394531 6.734375 -105.25 C 6.734375 -108.425781 6.601562 -112.359375 6.34375 -117.046875 C 6.082031 -121.734375 5.953125 -125.796875 5.953125 -129.234375 C 5.953125 -133.460938 6.90625 -136.46875 8.8125 -138.25 C 10.726562 -140.039062 13.503906 -141.132812 17.140625 -141.53125 C 20.773438 -141.925781 25.101562 -142.125 30.125 -142.125 C 37.132812 -142.125 42.914062 -140.375 47.46875 -136.875 C 52.03125 -133.375 55.597656 -128.78125 58.171875 -123.09375 C 60.753906 -117.414062 62.601562 -111.304688 63.71875 -104.765625 C 64.84375 -98.222656 65.40625 -91.910156 65.40625 -85.828125 C 65.40625 -73.804688 62.5 -64.328125 56.6875 -57.390625 C 50.875 -50.453125 43.34375 -46.984375 34.09375 -46.984375 C 31.976562 -46.847656 30.226562 -46.546875 28.84375 -46.078125 C 27.457031 -45.617188 26.765625 -43.738281 26.765625 -40.4375 L 26.765625 -9.90625 C 26.765625 -6.601562 26.035156 -3.828125 24.578125 -1.578125 C 23.128906 0.660156 20.488281 1.78125 16.65625 1.78125 Z M 34.890625 -69.578125 C 38.191406 -69.578125 40.832031 -71.65625 42.8125 -75.8125 C 44.789062 -79.976562 45.78125 -85.5 45.78125 -92.375 C 45.78125 -98.320312 45.050781 -103.707031 43.59375 -108.53125 C 42.144531 -113.351562 40.332031 -117.179688 38.15625 -120.015625 C 35.976562 -122.859375 33.632812 -124.28125 31.125 -124.28125 C 28.738281 -124.28125 27.316406 -123.125 26.859375 -120.8125 C 26.398438 -118.5 26.171875 -114.898438 26.171875 -110.015625 L 26.359375 -78.6875 C 26.359375 -76.050781 27.019531 -73.875 28.34375 -72.15625 C 29.664062 -70.4375 31.847656 -69.578125 34.890625 -69.578125 Z M 34.890625 -69.578125 "/></g></g></g><g fill="#ff4343" fill-opacity="1"><g transform="translate(143.507561, 266.204658)"><g><path d="M 57.6875 -30.125 C 63.625 -28.675781 65.867188 -25.375 64.421875 -20.21875 C 63.097656 -15.332031 60.15625 -10.804688 55.59375 -6.640625 C 51.039062 -2.472656 44.46875 -0.390625 35.875 -0.390625 C 25.4375 -0.390625 17.835938 -5.34375 13.078125 -15.25 C 8.328125 -25.164062 5.953125 -38.914062 5.953125 -56.5 C 5.953125 -67.457031 7.335938 -77.035156 10.109375 -85.234375 C 12.878906 -93.429688 16.675781 -99.773438 21.5 -104.265625 C 26.320312 -108.753906 31.773438 -111 37.859375 -111 C 46.847656 -111 53.753906 -107.164062 58.578125 -99.5 C 63.398438 -91.84375 65.8125 -79.488281 65.8125 -62.4375 C 65.8125 -58.34375 64.914062 -54.941406 63.125 -52.234375 C 61.34375 -49.523438 57.941406 -47.640625 52.921875 -46.578125 C 51.078125 -46.316406 48.566406 -46.117188 45.390625 -45.984375 C 42.222656 -45.847656 38.851562 -45.847656 35.28125 -45.984375 C 31.71875 -46.117188 28.347656 -46.382812 25.171875 -46.78125 C 25.835938 -37.925781 27.289062 -30.691406 29.53125 -25.078125 C 31.78125 -19.460938 34.289062 -16.65625 37.0625 -16.65625 C 39.84375 -16.65625 42.054688 -17.710938 43.703125 -19.828125 C 45.359375 -21.941406 46.382812 -23.851562 46.78125 -25.5625 C 47.4375 -27.945312 48.789062 -29.46875 50.84375 -30.125 C 52.894531 -30.789062 55.175781 -30.789062 57.6875 -30.125 Z M 36.875 -94.953125 C 33.96875 -94.953125 31.320312 -91.910156 28.9375 -85.828125 C 26.5625 -79.742188 25.175781 -71.878906 24.78125 -62.234375 C 27.550781 -62.109375 30.785156 -62.007812 34.484375 -61.9375 C 38.191406 -61.875 41.101562 -61.910156 43.21875 -62.046875 C 44.269531 -62.171875 45.222656 -62.460938 46.078125 -62.921875 C 46.941406 -63.390625 47.570312 -64.546875 47.96875 -66.390625 C 48.363281 -68.242188 48.363281 -71.285156 47.96875 -75.515625 C 47.4375 -80.671875 46.3125 -85.195312 44.59375 -89.09375 C 42.875 -93 40.300781 -94.953125 36.875 -94.953125 Z M 36.875 -94.953125 "/></g></g></g><g fill="#ff4343" fill-opacity="1"><g transform="translate(215.255028, 266.204658)"><g><path d="M 40.046875 0.203125 C 32.773438 0.203125 26.789062 -1.546875 22.09375 -5.046875 C 17.40625 -8.554688 13.738281 -13.117188 11.09375 -18.734375 C 8.457031 -24.347656 6.609375 -30.425781 5.546875 -36.96875 C 4.492188 -43.507812 3.96875 -49.882812 3.96875 -56.09375 C 3.96875 -68.78125 5.550781 -79.316406 8.71875 -87.703125 C 11.894531 -96.097656 16.15625 -102.375 21.5 -106.53125 C 26.851562 -110.695312 32.703125 -112.78125 39.046875 -112.78125 C 43.015625 -112.78125 46.019531 -112.117188 48.0625 -110.796875 C 50.113281 -109.484375 51.140625 -108.828125 51.140625 -108.828125 L 50.75 -128.640625 C 50.75 -131.679688 51.503906 -134.257812 53.015625 -136.375 C 54.535156 -138.488281 57.28125 -139.546875 61.25 -139.546875 C 65.21875 -139.546875 67.894531 -138.519531 69.28125 -136.46875 C 70.664062 -134.425781 71.359375 -131.882812 71.359375 -128.84375 C 71.359375 -126.195312 71.320312 -123.023438 71.25 -119.328125 C 71.1875 -115.628906 71.085938 -111.960938 70.953125 -108.328125 C 70.828125 -104.691406 70.726562 -101.582031 70.65625 -99 C 70.59375 -96.425781 70.5625 -94.8125 70.5625 -94.15625 C 70.5625 -89.394531 70.628906 -83.773438 70.765625 -77.296875 C 70.898438 -70.828125 71 -64.382812 71.0625 -57.96875 C 71.125 -51.5625 71.15625 -46.179688 71.15625 -41.828125 C 71.15625 -30.585938 69.832031 -21.960938 67.1875 -15.953125 C 64.550781 -9.941406 60.921875 -5.742188 56.296875 -3.359375 C 51.671875 -0.984375 46.253906 0.203125 40.046875 0.203125 Z M 40.046875 -16.453125 C 44.671875 -16.453125 47.9375 -19.425781 49.84375 -25.375 C 51.757812 -31.320312 52.71875 -41.695312 52.71875 -56.5 C 52.71875 -66.9375 52.289062 -74.925781 51.4375 -80.46875 C 50.582031 -86.019531 49.195312 -89.851562 47.28125 -91.96875 C 45.363281 -94.082031 42.6875 -95.140625 39.25 -95.140625 C 34.757812 -95.140625 31.15625 -91.671875 28.4375 -84.734375 C 25.726562 -77.796875 24.375 -68.25 24.375 -56.09375 C 24.375 -49.488281 25.035156 -43.144531 26.359375 -37.0625 C 27.679688 -30.988281 29.5 -26.035156 31.8125 -22.203125 C 34.125 -18.367188 36.867188 -16.453125 40.046875 -16.453125 Z M 40.046875 -16.453125 "/></g></g></g><g fill="#ff4343" fill-opacity="1"><g transform="translate(292.55203, 266.204658)"><g><path d="M 57.6875 -30.125 C 63.625 -28.675781 65.867188 -25.375 64.421875 -20.21875 C 63.097656 -15.332031 60.15625 -10.804688 55.59375 -6.640625 C 51.039062 -2.472656 44.46875 -0.390625 35.875 -0.390625 C 25.4375 -0.390625 17.835938 -5.34375 13.078125 -15.25 C 8.328125 -25.164062 5.953125 -38.914062 5.953125 -56.5 C 5.953125 -67.457031 7.335938 -77.035156 10.109375 -85.234375 C 12.878906 -93.429688 16.675781 -99.773438 21.5 -104.265625 C 26.320312 -108.753906 31.773438 -111 37.859375 -111 C 46.847656 -111 53.753906 -107.164062 58.578125 -99.5 C 63.398438 -91.84375 65.8125 -79.488281 65.8125 -62.4375 C 65.8125 -58.34375 64.914062 -54.941406 63.125 -52.234375 C 61.34375 -49.523438 57.941406 -47.640625 52.921875 -46.578125 C 51.078125 -46.316406 48.566406 -46.117188 45.390625 -45.984375 C 42.222656 -45.847656 38.851562 -45.847656 35.28125 -45.984375 C 31.71875 -46.117188 28.347656 -46.382812 25.171875 -46.78125 C 25.835938 -37.925781 27.289062 -30.691406 29.53125 -25.078125 C 31.78125 -19.460938 34.289062 -16.65625 37.0625 -16.65625 C 39.84375 -16.65625 42.054688 -17.710938 43.703125 -19.828125 C 45.359375 -21.941406 46.382812 -23.851562 46.78125 -25.5625 C 47.4375 -27.945312 48.789062 -29.46875 50.84375 -30.125 C 52.894531 -30.789062 55.175781 -30.789062 57.6875 -30.125 Z M 36.875 -94.953125 C 33.96875 -94.953125 31.320312 -91.910156 28.9375 -85.828125 C 26.5625 -79.742188 25.175781 -71.878906 24.78125 -62.234375 C 27.550781 -62.109375 30.785156 -62.007812 34.484375 -61.9375 C 38.191406 -61.875 41.101562 -61.910156 43.21875 -62.046875 C 44.269531 -62.171875 45.222656 -62.460938 46.078125 -62.921875 C 46.941406 -63.390625 47.570312 -64.546875 47.96875 -66.390625 C 48.363281 -68.242188 48.363281 -71.285156 47.96875 -75.515625 C 47.4375 -80.671875 46.3125 -85.195312 44.59375 -89.09375 C 42.875 -93 40.300781 -94.953125 36.875 -94.953125 Z M 36.875 -94.953125 "/></g></g></g><g fill="#ff4343" fill-opacity="1"><g transform="translate(364.299496, 266.204658)"><g><path d="M 10.90625 1.984375 C 8.125 1.984375 6.140625 1.351562 4.953125 0.09375 C 3.765625 -1.15625 3.171875 -2.640625 3.171875 -4.359375 C 3.171875 -5.546875 3.367188 -6.800781 3.765625 -8.125 C 4.160156 -9.1875 4.820312 -11.992188 5.75 -16.546875 C 6.675781 -21.109375 7.796875 -26.691406 9.109375 -33.296875 C 10.429688 -39.910156 11.820312 -47.046875 13.28125 -54.703125 C 14.738281 -62.367188 16.160156 -69.898438 17.546875 -77.296875 C 18.929688 -84.703125 20.1875 -91.441406 21.3125 -97.515625 C 22.4375 -103.597656 23.257812 -108.289062 23.78125 -111.59375 C 24.175781 -114.101562 24.671875 -117.503906 25.265625 -121.796875 C 25.867188 -126.097656 26.171875 -129.570312 26.171875 -132.21875 C 26.171875 -134.851562 27.125 -136.960938 29.03125 -138.546875 C 30.945312 -140.140625 33.691406 -140.9375 37.265625 -140.9375 C 40.828125 -140.9375 43.566406 -140.140625 45.484375 -138.546875 C 47.398438 -136.960938 48.359375 -134.851562 48.359375 -132.21875 C 48.359375 -129.570312 48.65625 -126.097656 49.25 -121.796875 C 49.851562 -117.503906 50.351562 -114.101562 50.75 -111.59375 C 51.269531 -108.289062 52.09375 -103.597656 53.21875 -97.515625 C 54.34375 -91.441406 55.597656 -84.703125 56.984375 -77.296875 C 58.367188 -69.898438 59.789062 -62.367188 61.25 -54.703125 C 62.707031 -47.046875 64.09375 -39.910156 65.40625 -33.296875 C 66.726562 -26.691406 67.882812 -21.109375 68.875 -16.546875 C 69.875 -11.992188 70.503906 -9.1875 70.765625 -8.125 C 71.160156 -6.800781 71.359375 -5.546875 71.359375 -4.359375 C 71.359375 -2.640625 70.765625 -1.15625 69.578125 0.09375 C 68.390625 1.351562 66.40625 1.984375 63.625 1.984375 C 59.925781 1.984375 57.21875 1.550781 55.5 0.6875 C 53.78125 -0.164062 52.457031 -2.179688 51.53125 -5.359375 C 51.007812 -7.597656 50.550781 -9.507812 50.15625 -11.09375 C 49.757812 -12.6875 49.296875 -14.144531 48.765625 -15.46875 C 48.097656 -17.445312 46.9375 -19.160156 45.28125 -20.609375 C 43.632812 -22.066406 40.960938 -22.796875 37.265625 -22.796875 C 33.566406 -22.796875 30.890625 -22.066406 29.234375 -20.609375 C 27.585938 -19.160156 26.429688 -17.445312 25.765625 -15.46875 C 25.234375 -14.144531 24.800781 -12.6875 24.46875 -11.09375 C 24.144531 -9.507812 23.65625 -7.597656 23 -5.359375 C 22.070312 -2.179688 20.75 -0.164062 19.03125 0.6875 C 17.3125 1.550781 14.601562 1.984375 10.90625 1.984375 Z M 37.265625 -39.25 C 39.242188 -39.25 40.957031 -39.546875 42.40625 -40.140625 C 43.863281 -40.734375 44.460938 -42.285156 44.203125 -44.796875 C 44.066406 -45.984375 43.800781 -48.328125 43.40625 -51.828125 C 43.007812 -55.335938 42.515625 -59.269531 41.921875 -63.625 C 41.328125 -67.988281 40.765625 -72.25 40.234375 -76.40625 C 39.710938 -80.570312 39.1875 -84.007812 38.65625 -86.71875 C 38.125 -89.425781 37.660156 -90.78125 37.265625 -90.78125 C 36.867188 -90.78125 36.40625 -89.425781 35.875 -86.71875 C 35.34375 -84.007812 34.8125 -80.570312 34.28125 -76.40625 C 33.757812 -72.25 33.203125 -67.988281 32.609375 -63.625 C 32.015625 -59.269531 31.519531 -55.335938 31.125 -51.828125 C 30.726562 -48.328125 30.460938 -45.984375 30.328125 -44.796875 C 30.066406 -42.285156 30.691406 -40.734375 32.203125 -40.140625 C 33.722656 -39.546875 35.410156 -39.25 37.265625 -39.25 Z M 37.265625 -39.25 "/></g></g></g><g fill="#ff4343" fill-opacity="1"><g transform="translate(441.596498, 266.204658)"><g><path d="M 16.65625 -119.328125 C 15.457031 -119.328125 14.460938 -119.523438 13.671875 -119.921875 C 12.484375 -120.578125 11.890625 -121.765625 11.890625 -123.484375 C 11.890625 -125.992188 12.816406 -128.769531 14.671875 -131.8125 C 15.460938 -133.394531 16.253906 -134.78125 17.046875 -135.96875 C 17.835938 -137.164062 19.160156 -139.414062 21.015625 -142.71875 C 22.859375 -146.15625 24.835938 -148.003906 26.953125 -148.265625 C 29.066406 -148.535156 31.378906 -148.671875 33.890625 -148.671875 C 35.878906 -148.671875 37.695312 -148.304688 39.34375 -147.578125 C 41 -146.847656 41.828125 -145.691406 41.828125 -144.109375 C 41.828125 -142.921875 41.363281 -141.664062 40.4375 -140.34375 C 39.113281 -138.488281 37.394531 -136.269531 35.28125 -133.6875 C 33.164062 -131.113281 31.117188 -128.738281 29.140625 -126.5625 C 27.160156 -124.382812 25.707031 -122.898438 24.78125 -122.109375 C 22.53125 -120.253906 19.820312 -119.328125 16.65625 -119.328125 Z M 16.65625 0 C 9.914062 0 6.546875 -3.4375 6.546875 -10.3125 C 6.546875 -10.3125 6.546875 -11.664062 6.546875 -14.375 C 6.546875 -17.082031 6.609375 -19.425781 6.734375 -21.40625 C 6.867188 -26.03125 6.9375 -30.488281 6.9375 -34.78125 C 6.9375 -39.082031 6.9375 -43.28125 6.9375 -47.375 C 6.9375 -53.582031 6.9375 -59.328125 6.9375 -64.609375 C 6.9375 -69.898438 6.867188 -75.984375 6.734375 -82.859375 C 6.734375 -85.492188 6.601562 -88.429688 6.34375 -91.671875 C 6.082031 -94.910156 5.953125 -97.984375 5.953125 -100.890625 C 5.953125 -102.609375 6.113281 -104.257812 6.4375 -105.84375 C 6.769531 -107.4375 7.660156 -108.757812 9.109375 -109.8125 C 10.566406 -110.875 12.945312 -111.40625 16.25 -111.40625 C 21.269531 -111.40625 24.375 -110.445312 25.5625 -108.53125 C 26.757812 -106.613281 27.359375 -104.726562 27.359375 -102.875 C 27.359375 -99.707031 27.222656 -96.335938 26.953125 -92.765625 C 26.691406 -89.203125 26.5625 -85.898438 26.5625 -82.859375 L 26.5625 -52.53125 L 26.359375 -36.671875 C 26.359375 -34.296875 26.390625 -31.816406 26.453125 -29.234375 C 26.523438 -26.660156 26.5625 -24.050781 26.5625 -21.40625 C 26.820312 -19.425781 26.953125 -17.082031 26.953125 -14.375 C 26.953125 -11.664062 26.953125 -10.3125 26.953125 -10.3125 C 26.953125 -7.800781 26.457031 -5.453125 25.46875 -3.265625 C 24.476562 -1.085938 21.539062 0 16.65625 0 Z M 16.65625 0 "/></g></g></g><g clip-path="url(#676f4e72d7)"><path fill="#ff4343" d="M 460.582031 210.453125 C 460.710938 205.125 464.078125 202.203125 469.378906 202.203125 C 470.726562 202.203125 472.074219 202.203125 473.414062 202.203125 C 476.675781 202.257812 479.46875 204.09375 480.441406 207.1875 C 480.871094 208.566406 481.53125 208.738281 482.738281 208.738281 C 499.515625 208.714844 516.296875 208.714844 533.078125 208.738281 C 537.90625 208.738281 542.453125 209.875 546.71875 212.144531 C 553.4375 215.703125 560.113281 219.367188 566.796875 222.976562 C 567.921875 223.617188 569.132812 223.933594 570.429688 223.921875 C 580.679688 223.867188 590.925781 223.867188 601.171875 223.921875 C 606.648438 223.921875 610.90625 227.148438 611.925781 232.003906 C 612.378906 234.296875 612.429688 236.597656 612.078125 238.90625 C 611.996094 239.679688 611.820312 240.429688 611.554688 241.15625 C 611.289062 241.886719 610.941406 242.574219 610.511719 243.21875 C 610.082031 243.863281 609.582031 244.445312 609.011719 244.96875 C 608.445312 245.492188 607.820312 245.941406 607.140625 246.3125 C 605.910156 247.003906 605.8125 247.625 606.179688 248.835938 C 608.828125 257.53125 611.488281 266.238281 614.027344 274.964844 C 615.828125 281.1875 617.664062 287.457031 617.683594 294 C 617.753906 316.445312 617.707031 338.871094 617.683594 361.332031 C 617.683594 367.804688 613.890625 371.554688 607.367188 371.554688 L 493.828125 371.554688 C 489.933594 371.554688 489.035156 370.667969 489.035156 366.824219 C 489.035156 341.941406 489.035156 317.054688 489.035156 292.164062 C 489.039062 290.933594 489.21875 289.730469 489.574219 288.554688 C 493.359375 275.773438 497.097656 262.976562 500.902344 250.203125 C 501.25 249.042969 501.210938 248.65625 499.875 248.285156 C 495.105469 247.011719 491.078125 244.1875 489.597656 239.515625 C 488.316406 235.457031 486.003906 235.234375 482.746094 235.507812 C 481.667969 235.601562 481.296875 235.765625 481.117188 236.949219 C 480.457031 241.382812 477.234375 244.015625 472.726562 244.046875 L 469.457031 244.046875 C 464.105469 244.046875 460.726562 241.183594 460.589844 235.84375 C 460.367188 227.414062 460.367188 218.949219 460.582031 210.453125 Z M 605.078125 231.714844 C 604.015625 230.167969 602.308594 230.066406 600.59375 230.066406 C 577.097656 230.066406 553.601562 230.066406 530.105469 230.066406 L 528.65625 230.066406 L 528.367188 230.542969 C 530.234375 232.34375 532.101562 234.152344 533.960938 235.941406 C 535.820312 237.730469 537.507812 240.402344 539.808594 241.378906 C 542.109375 242.351562 544.96875 241.640625 547.589844 241.640625 C 565.261719 241.640625 582.933594 241.640625 600.601562 241.640625 C 602.710938 241.640625 604.792969 241.449219 605.570312 239.25 C 606.460938 236.796875 606.714844 234.089844 605.078125 231.714844 Z M 522.757812 363.269531 C 522.757812 365.101562 523.296875 365.433594 524.984375 365.425781 C 552.339844 365.382812 579.691406 365.371094 607.039062 365.390625 C 610.671875 365.390625 611.554688 364.441406 611.527344 360.832031 C 611.371094 341.539062 611.929688 322.242188 611.574219 302.949219 C 611.46875 297.101562 611.421875 291.226562 610.410156 285.453125 C 609.429688 279.832031 607.328125 274.480469 605.785156 268.996094 C 603.90625 262.402344 601.917969 255.839844 600 249.253906 C 599.730469 248.320312 599.421875 247.789062 598.222656 247.792969 C 580.417969 247.847656 562.609375 247.859375 544.800781 247.832031 C 544.550781 247.832031 544.285156 247.882812 543.96875 247.914062 C 545.128906 252.554688 544.4375 256.757812 541.230469 260.359375 C 536.8125 265.316406 529.675781 266.03125 524.207031 262.097656 C 521.300781 259.988281 518.511719 257.726562 515.636719 255.570312 C 515.171875 255.222656 514.699219 254.390625 514.050781 254.84375 C 513.5625 255.191406 514.011719 255.914062 514.152344 256.460938 C 516.847656 266.488281 519.539062 276.519531 522.234375 286.546875 C 522.582031 287.851562 522.753906 289.179688 522.75 290.53125 C 522.757812 314.78125 522.808594 339.027344 522.757812 363.269531 Z M 512.257812 365.335938 C 510.164062 363.203125 508.296875 361.316406 506.445312 359.421875 C 505.859375 358.824219 505.550781 359.421875 505.226562 359.726562 C 503.433594 361.464844 501.667969 363.226562 499.523438 365.335938 Z M 495.652344 289.714844 C 495.363281 290.570312 495.203125 291.449219 495.171875 292.351562 C 495.171875 314.859375 495.171875 337.371094 495.171875 359.878906 L 495.171875 361.09375 L 502.492188 353.6875 C 503.078125 353.09375 502.820312 352.347656 502.820312 351.667969 C 502.820312 333.101562 502.820312 314.515625 502.820312 295.910156 C 502.734375 295.066406 502.828125 294.246094 503.097656 293.445312 C 503.726562 292.035156 504.835938 291.34375 506.316406 291.546875 C 506.65625 291.570312 506.980469 291.652344 507.292969 291.796875 C 507.601562 291.941406 507.875 292.132812 508.117188 292.378906 C 508.355469 292.621094 508.546875 292.902344 508.683594 293.214844 C 508.824219 293.527344 508.90625 293.855469 508.925781 294.195312 C 508.972656 294.839844 508.988281 295.480469 508.964844 296.125 C 508.964844 314.578125 508.964844 333.035156 508.964844 351.496094 C 508.929688 352.066406 509.019531 352.621094 509.234375 353.152344 C 509.445312 353.679688 509.765625 354.140625 510.1875 354.523438 C 512.277344 356.507812 514.25 358.613281 516.289062 360.683594 C 516.921875 360.167969 516.640625 359.542969 516.640625 359.027344 C 516.640625 336.332031 516.640625 313.628906 516.640625 290.917969 C 516.640625 287.488281 515.195312 284.304688 514.339844 281.03125 C 511.894531 271.679688 509.367188 262.355469 506.820312 252.828125 C 505.972656 253.902344 505.878906 255.078125 505.566406 256.132812 C 502.226562 267.3125 498.921875 278.5 495.652344 289.699219 Z M 481.214844 216.683594 C 481.351562 220.476562 481.304688 224.269531 481.214844 228.0625 C 481.214844 229.171875 481.523438 229.492188 482.613281 229.460938 C 485.183594 229.386719 487.75 229.40625 490.320312 229.460938 C 492.886719 229.511719 493.78125 230.441406 493.964844 232.914062 C 494.390625 238.726562 498.636719 242.894531 504.433594 242.714844 C 505.933594 242.628906 507.394531 242.828125 508.820312 243.304688 C 510.246094 243.78125 511.53125 244.503906 512.679688 245.472656 C 517.46875 249.332031 522.410156 252.992188 527.277344 256.746094 C 528.859375 257.96875 530.59375 258.703125 532.617188 258.398438 C 535.234375 258 537.136719 256.574219 537.984375 254.039062 C 538.871094 251.367188 538.230469 248.96875 536.242188 246.96875 C 530.636719 241.324219 525.027344 235.683594 519.414062 230.050781 C 518.210938 228.855469 517.226562 227.628906 518.011719 225.832031 C 518.796875 224.039062 520.355469 223.90625 522.011719 223.90625 C 532.316406 223.925781 542.625 223.925781 552.933594 223.90625 L 554.796875 223.90625 C 550.175781 221.066406 545.691406 218.230469 540.703125 216.378906 C 537.988281 215.363281 535.183594 214.855469 532.289062 214.863281 C 515.902344 214.90625 499.511719 214.90625 483.121094 214.863281 C 481.679688 214.847656 481.164062 215.136719 481.214844 216.683594 Z M 466.648438 223.238281 C 466.648438 226.96875 466.648438 230.699219 466.648438 234.425781 C 466.648438 237.46875 467.105469 237.929688 470.023438 237.929688 L 472.328125 237.929688 C 474.382812 237.929688 475.082031 237.277344 475.09375 235.179688 C 475.128906 227.207031 475.128906 219.230469 475.09375 211.257812 C 475.09375 208.921875 474.414062 208.367188 472.140625 208.367188 L 469.617188 208.367188 C 467.28125 208.367188 466.652344 208.9375 466.632812 211.277344 C 466.621094 215.28125 466.648438 219.261719 466.648438 223.253906 Z M 466.648438 223.238281 " fill-opacity="1" fill-rule="nonzero"/></g><path fill="#ff4343" d="M 536.398438 308.683594 C 536.796875 307.683594 537.367188 306.859375 538.476562 306.535156 C 539.214844 306.328125 539.925781 306.40625 540.605469 306.765625 C 544.617188 308.644531 548.660156 310.449219 552.671875 312.316406 C 553.503906 312.703125 554.328125 313.082031 555.183594 313.429688 C 555.542969 313.558594 555.875 313.75 556.167969 313.996094 C 556.464844 314.246094 556.710938 314.535156 556.902344 314.871094 C 557.097656 315.203125 557.226562 315.5625 557.292969 315.941406 C 557.359375 316.324219 557.359375 316.703125 557.292969 317.085938 C 557.191406 317.890625 557.40625 318.085938 558.152344 317.816406 C 560.148438 317.101562 562.210938 317.105469 564.285156 317.257812 C 566.738281 317.460938 569.160156 317.847656 571.554688 318.417969 C 574.460938 319.101562 577.324219 319.949219 580.136719 320.957031 C 580.929688 321.230469 581.046875 321.164062 581.164062 320.351562 C 581.40625 318.707031 581.074219 317.1875 580.179688 315.792969 C 580.074219 315.617188 579.953125 315.449219 579.839844 315.273438 C 579.769531 315.136719 579.730469 314.988281 579.726562 314.828125 C 579.71875 314.671875 579.75 314.519531 579.808594 314.375 C 579.871094 314.230469 579.960938 314.105469 580.078125 314.003906 C 580.195312 313.898438 580.332031 313.824219 580.480469 313.78125 C 580.757812 313.734375 580.871094 313.964844 580.996094 314.136719 C 581.941406 315.359375 582.535156 316.734375 582.78125 318.261719 C 582.941406 319.238281 582.90625 320.207031 582.671875 321.171875 C 582.628906 321.277344 582.613281 321.386719 582.621094 321.5 C 582.625 321.609375 582.65625 321.71875 582.710938 321.816406 C 582.765625 321.917969 582.835938 322 582.929688 322.066406 C 583.019531 322.132812 583.121094 322.179688 583.230469 322.203125 C 584.339844 322.609375 585.402344 323.121094 586.464844 323.625 C 587.171875 323.960938 587.320312 323.863281 587.492188 323.109375 C 588.015625 320.601562 588.21875 318.070312 588.105469 315.511719 C 588.09375 315.171875 588.140625 314.839844 588.238281 314.515625 C 588.339844 314.191406 588.488281 313.890625 588.6875 313.617188 C 588.886719 313.34375 589.125 313.109375 589.402344 312.914062 C 589.683594 312.71875 589.984375 312.574219 590.308594 312.480469 C 590.542969 312.410156 590.78125 312.363281 591.027344 312.351562 C 591.269531 312.335938 591.511719 312.347656 591.753906 312.390625 C 591.996094 312.433594 592.226562 312.503906 592.453125 312.601562 C 592.675781 312.695312 592.886719 312.820312 593.085938 312.964844 C 593.28125 313.113281 593.457031 313.28125 593.613281 313.46875 C 593.769531 313.65625 593.902344 313.859375 594.011719 314.082031 C 594.121094 314.300781 594.203125 314.53125 594.261719 314.769531 C 594.316406 315.007812 594.34375 315.25 594.339844 315.496094 C 594.371094 317.597656 594.339844 319.695312 594.339844 321.800781 C 594.339844 322.832031 594.402344 322.917969 595.410156 323.128906 C 595.707031 323.1875 595.984375 323.296875 596.242188 323.460938 C 596.496094 323.621094 596.714844 323.828125 596.894531 324.070312 C 597.074219 324.316406 597.199219 324.585938 597.277344 324.882812 C 597.355469 325.175781 597.375 325.472656 597.339844 325.777344 C 597.25 327.082031 597.019531 328.363281 596.648438 329.617188 C 596.589844 329.820312 596.59375 330.019531 596.652344 330.222656 C 596.714844 330.421875 596.824219 330.589844 596.980469 330.726562 C 597.523438 331.324219 597.90625 332.011719 598.132812 332.789062 C 598.273438 333.308594 598.257812 333.824219 598.089844 334.335938 C 597.410156 336.378906 596.335938 338.183594 594.863281 339.753906 C 591.46875 343.398438 587.195312 345.257812 582.332031 345.734375 C 574.765625 346.484375 568.066406 344.285156 562.296875 339.320312 C 560.621094 337.914062 559.210938 336.28125 558.0625 334.414062 C 556.914062 332.550781 556.089844 330.550781 555.589844 328.417969 C 554.957031 325.761719 555.023438 323.121094 555.785156 320.5 C 555.875 320.175781 556.148438 319.777344 555.925781 319.519531 C 555.707031 319.261719 555.285156 319.550781 554.976562 319.652344 C 554.09375 319.921875 553.25 319.824219 552.445312 319.371094 C 551.015625 318.675781 549.605469 317.960938 548.175781 317.265625 C 545.878906 316.140625 543.550781 315.054688 541.277344 313.894531 C 540.207031 313.351562 539.113281 312.863281 538.039062 312.347656 C 537.253906 312.011719 536.6875 311.457031 536.339844 310.675781 C 536.277344 310.519531 536.238281 310.304688 535.984375 310.324219 L 535.984375 309.226562 C 536.398438 309.164062 536.320312 308.871094 536.398438 308.683594 Z M 586.183594 325.425781 C 584.914062 324.910156 583.660156 324.320312 582.40625 323.75 C 582.101562 323.609375 581.925781 323.613281 581.742188 323.957031 C 581.503906 324.398438 581.171875 324.789062 580.894531 325.21875 C 580.738281 325.445312 580.601562 325.460938 580.421875 325.261719 C 580.347656 325.1875 580.269531 325.121094 580.1875 325.058594 C 579.878906 324.796875 579.417969 324.585938 579.304688 324.253906 C 579.191406 323.925781 579.679688 323.605469 579.890625 323.28125 C 580.101562 322.953125 580.046875 322.824219 579.679688 322.695312 C 574.605469 320.902344 569.441406 319.457031 564.046875 319.039062 C 562.460938 318.871094 560.882812 318.957031 559.324219 319.296875 L 559.085938 319.355469 C 557.636719 319.796875 557.40625 320.46875 558.273438 321.734375 C 558.644531 322.253906 559.070312 322.726562 559.546875 323.152344 C 559.714844 321.195312 560.808594 320.011719 562.410156 319.957031 C 562.777344 319.945312 563.136719 320 563.484375 320.125 C 563.835938 320.246094 564.148438 320.429688 564.429688 320.671875 C 564.707031 320.914062 564.933594 321.199219 565.105469 321.527344 C 565.277344 321.855469 565.382812 322.203125 565.425781 322.574219 C 565.738281 324.777344 566.644531 326.691406 568.152344 328.324219 C 568.445312 328.644531 568.785156 328.890625 569.179688 329.066406 C 572.082031 330.375 575.050781 331.503906 578.085938 332.449219 C 578.359375 332.542969 578.636719 332.554688 578.914062 332.484375 C 582.511719 331.652344 584.957031 329.425781 586.421875 326.054688 C 586.558594 325.71875 586.53125 325.570312 586.183594 325.425781 Z M 561.566406 323.226562 C 561.597656 323.429688 561.640625 323.625 561.671875 323.832031 C 561.691406 324.226562 561.804688 324.585938 562.019531 324.917969 C 562.234375 325.246094 562.515625 325.5 562.867188 325.679688 C 563.46875 325.976562 564.003906 326.421875 564.710938 326.710938 C 564.109375 325.5 563.707031 324.230469 563.503906 322.894531 C 563.386719 322.195312 562.933594 321.808594 562.359375 321.90625 C 562.214844 321.933594 562.082031 321.992188 561.960938 322.074219 C 561.839844 322.160156 561.742188 322.265625 561.667969 322.390625 C 561.59375 322.515625 561.546875 322.652344 561.527344 322.796875 C 561.511719 322.945312 561.523438 323.085938 561.566406 323.226562 Z M 594.957031 324.835938 C 594.632812 324.820312 594.324219 324.742188 594.03125 324.601562 C 593.738281 324.460938 593.484375 324.273438 593.265625 324.03125 C 593.050781 323.789062 592.886719 323.515625 592.777344 323.207031 C 592.667969 322.898438 592.625 322.582031 592.640625 322.257812 C 592.640625 320.015625 592.640625 317.777344 592.640625 315.554688 C 592.660156 315.28125 592.601562 315.027344 592.46875 314.792969 C 592.332031 314.554688 592.144531 314.375 591.902344 314.253906 C 591.679688 314.132812 591.445312 314.078125 591.195312 314.097656 C 590.945312 314.113281 590.71875 314.199219 590.519531 314.351562 C 590.308594 314.503906 590.152344 314.699219 590.050781 314.9375 C 589.949219 315.175781 589.914062 315.425781 589.949219 315.683594 C 590.035156 317.539062 589.957031 319.390625 589.71875 321.230469 C 589.203125 324.84375 588.140625 328.210938 585.609375 330.9375 C 584.570312 332.023438 583.371094 332.882812 582.011719 333.515625 C 583.578125 333.945312 585.164062 334.273438 586.769531 334.507812 C 587.582031 334.703125 588.40625 334.773438 589.238281 334.71875 C 591.808594 334.335938 593.460938 332.816406 594.503906 330.515625 C 595.191406 328.953125 595.582031 327.320312 595.667969 325.617188 C 595.636719 325.121094 595.472656 324.882812 594.925781 324.835938 Z M 596.261719 332.726562 C 596.179688 332.503906 596.046875 332.320312 595.863281 332.171875 C 595.523438 332.65625 595.210938 333.15625 594.835938 333.609375 C 594.460938 334.0625 594.085938 334.441406 593.65625 334.910156 C 594.375 334.882812 595.058594 334.722656 595.710938 334.429688 C 596.554688 334.007812 596.703125 333.546875 596.261719 332.726562 Z M 557.328125 327.570312 C 558.320312 332.367188 561.003906 336.085938 564.820312 339 C 567.175781 340.839844 569.78125 342.195312 572.640625 343.0625 C 575.496094 343.929688 578.414062 344.253906 581.390625 344.035156 C 583.457031 343.945312 585.449219 343.515625 587.371094 342.746094 C 589.292969 341.976562 591.03125 340.910156 592.589844 339.546875 C 593.53125 338.707031 594.339844 337.753906 595.023438 336.695312 C 593.90625 336.894531 592.777344 336.980469 591.640625 336.960938 C 587.484375 336.792969 583.417969 336.105469 579.4375 334.898438 C 573.5 333.289062 567.878906 330.921875 562.570312 327.804688 C 560.539062 326.640625 558.726562 325.207031 557.125 323.5 C 556.957031 324.871094 557.027344 326.226562 557.328125 327.570312 Z M 554.140625 317.960938 C 553.5625 317.371094 553.457031 316.882812 553.8125 316.414062 C 554.164062 315.945312 554.621094 315.933594 555.492188 316.414062 C 555.617188 315.65625 554.644531 315.023438 554.03125 315.070312 C 553.84375 315.082031 553.664062 315.128906 553.492188 315.210938 C 553.320312 315.289062 553.171875 315.398438 553.042969 315.539062 C 552.914062 315.675781 552.8125 315.835938 552.746094 316.011719 C 552.675781 316.1875 552.640625 316.371094 552.640625 316.558594 C 552.644531 316.753906 552.683594 316.9375 552.761719 317.117188 C 552.839844 317.292969 552.953125 317.449219 553.09375 317.578125 C 553.234375 317.710938 553.394531 317.808594 553.578125 317.875 C 553.757812 317.941406 553.945312 317.96875 554.140625 317.957031 Z M 538.785156 310.648438 L 546.105469 314.214844 L 550.660156 316.445312 C 550.730469 315.472656 551.113281 314.648438 551.816406 313.976562 C 551.726562 313.796875 551.554688 313.773438 551.421875 313.710938 L 539.9375 308.445312 C 538.933594 307.988281 538.160156 308.421875 538.023438 309.519531 C 537.9375 310.101562 538.3125 310.410156 538.785156 310.644531 Z M 538.785156 310.648438 " fill-opacity="1" fill-rule="nonzero"/><path fill="#ff4343" d="M 536.136719 309.101562 C 536.695312 306.570312 538.816406 305.699219 540.917969 306.707031 C 545.496094 308.917969 550.136719 310.984375 554.761719 313.089844 C 557.105469 314.152344 557.582031 314.910156 557.382812 317.445312 C 557.382812 317.800781 557.480469 317.886719 557.800781 317.765625 C 558.179688 317.617188 558.5625 317.492188 558.953125 317.386719 C 561.492188 316.777344 564.039062 316.988281 566.574219 317.328125 C 571.304688 318.007812 575.90625 319.195312 580.375 320.898438 C 580.886719 321.09375 580.964844 320.898438 581.03125 320.46875 C 581.152344 319.65625 581.128906 318.847656 580.957031 318.042969 C 580.785156 317.238281 580.476562 316.492188 580.03125 315.800781 C 579.804688 315.425781 579.269531 315.109375 579.371094 314.71875 C 579.476562 314.328125 579.976562 314.085938 580.261719 313.738281 C 580.542969 313.394531 580.734375 313.480469 580.980469 313.796875 C 582.738281 316.054688 583.480469 318.5625 582.828125 321.402344 C 582.78125 321.609375 582.695312 321.769531 582.972656 321.886719 C 584.386719 322.480469 585.789062 323.09375 587.207031 323.703125 C 587.832031 321.210938 588.089844 318.683594 587.976562 316.117188 C 587.9375 315.667969 587.953125 315.21875 588.023438 314.773438 C 588.105469 314.375 588.253906 314 588.472656 313.65625 C 588.695312 313.3125 588.96875 313.015625 589.296875 312.773438 C 589.625 312.53125 589.984375 312.355469 590.378906 312.246094 C 590.769531 312.136719 591.171875 312.101562 591.578125 312.144531 C 591.984375 312.183594 592.367188 312.292969 592.730469 312.476562 C 593.097656 312.660156 593.417969 312.90625 593.691406 313.207031 C 593.964844 313.511719 594.175781 313.851562 594.324219 314.234375 C 594.472656 314.613281 594.550781 315.011719 594.550781 315.417969 C 594.550781 317.644531 594.550781 319.867188 594.550781 322.089844 C 594.550781 322.605469 594.699219 322.863281 595.265625 322.910156 C 595.59375 322.929688 595.90625 323.011719 596.203125 323.160156 C 596.496094 323.308594 596.75 323.507812 596.96875 323.757812 C 597.183594 324.007812 597.339844 324.289062 597.445312 324.605469 C 597.546875 324.917969 597.582031 325.238281 597.558594 325.570312 C 597.519531 326.921875 597.289062 328.238281 596.875 329.527344 C 596.800781 329.695312 596.785156 329.867188 596.824219 330.046875 C 596.863281 330.222656 596.953125 330.375 597.089844 330.496094 C 598.460938 332.011719 598.792969 333.621094 597.863281 335.582031 C 595.722656 340.089844 592.246094 343.03125 587.636719 344.679688 C 581.636719 346.828125 575.671875 346.425781 569.824219 344.070312 C 564.222656 341.816406 559.8125 338.152344 557.050781 332.699219 C 554.90625 328.464844 554.425781 324.046875 555.988281 319.496094 C 555.84375 319.40625 555.757812 319.523438 555.65625 319.578125 C 555.167969 319.824219 554.652344 319.941406 554.109375 319.9375 C 553.566406 319.929688 553.054688 319.796875 552.574219 319.539062 C 547.925781 317.242188 543.261719 314.972656 538.585938 312.734375 C 537.449219 312.191406 536.484375 311.542969 536.066406 310.289062 C 536.320312 310.289062 536.359375 310.484375 536.421875 310.640625 C 536.769531 311.421875 537.335938 311.976562 538.121094 312.308594 C 539.195312 312.824219 540.289062 313.339844 541.359375 313.855469 C 543.644531 315.015625 545.980469 316.105469 548.257812 317.230469 C 549.6875 317.925781 551.097656 318.636719 552.527344 319.335938 C 553.332031 319.789062 554.175781 319.882812 555.058594 319.617188 C 555.367188 319.515625 555.746094 319.191406 556.007812 319.484375 C 556.273438 319.777344 555.957031 320.140625 555.867188 320.464844 C 555.105469 323.085938 555.039062 325.722656 555.671875 328.378906 C 556.171875 330.515625 556.996094 332.511719 558.144531 334.378906 C 559.292969 336.242188 560.703125 337.878906 562.378906 339.285156 C 568.121094 344.25 574.820312 346.449219 582.414062 345.699219 C 587.277344 345.21875 591.550781 343.363281 594.945312 339.71875 C 596.417969 338.148438 597.492188 336.34375 598.171875 334.300781 C 598.339844 333.789062 598.355469 333.273438 598.214844 332.753906 C 597.988281 331.976562 597.605469 331.289062 597.0625 330.691406 C 596.90625 330.554688 596.796875 330.386719 596.734375 330.1875 C 596.675781 329.984375 596.671875 329.785156 596.730469 329.582031 C 597.101562 328.328125 597.332031 327.046875 597.421875 325.738281 C 597.457031 325.4375 597.4375 325.140625 597.359375 324.84375 C 597.28125 324.550781 597.15625 324.28125 596.976562 324.035156 C 596.796875 323.789062 596.578125 323.585938 596.324219 323.425781 C 596.066406 323.261719 595.789062 323.152344 595.492188 323.09375 C 594.464844 322.882812 594.421875 322.816406 594.421875 321.761719 C 594.421875 319.660156 594.421875 317.558594 594.421875 315.460938 C 594.425781 315.214844 594.398438 314.972656 594.34375 314.734375 C 594.285156 314.496094 594.203125 314.265625 594.09375 314.042969 C 593.984375 313.824219 593.851562 313.621094 593.695312 313.433594 C 593.539062 313.242188 593.363281 313.078125 593.167969 312.929688 C 592.96875 312.78125 592.757812 312.660156 592.535156 312.5625 C 592.308594 312.464844 592.078125 312.398438 591.835938 312.355469 C 591.59375 312.3125 591.351562 312.300781 591.109375 312.3125 C 590.863281 312.328125 590.625 312.371094 590.390625 312.445312 C 590.066406 312.539062 589.765625 312.683594 589.488281 312.875 C 589.210938 313.070312 588.96875 313.304688 588.769531 313.582031 C 588.570312 313.855469 588.421875 314.15625 588.320312 314.480469 C 588.222656 314.804688 588.175781 315.136719 588.1875 315.476562 C 588.300781 318.035156 588.097656 320.566406 587.574219 323.074219 C 587.390625 323.84375 587.242188 323.941406 586.546875 323.589844 C 585.484375 323.074219 584.421875 322.558594 583.3125 322.164062 C 583.203125 322.144531 583.101562 322.097656 583.011719 322.03125 C 582.917969 321.964844 582.847656 321.878906 582.792969 321.78125 C 582.738281 321.679688 582.707031 321.574219 582.703125 321.460938 C 582.695312 321.347656 582.710938 321.238281 582.753906 321.132812 C 582.988281 320.171875 583.023438 319.203125 582.867188 318.226562 C 582.621094 316.699219 582.023438 315.320312 581.078125 314.097656 C 580.949219 313.929688 580.835938 313.695312 580.5625 313.742188 C 580.414062 313.789062 580.28125 313.863281 580.160156 313.964844 C 580.042969 314.070312 579.953125 314.195312 579.890625 314.339844 C 579.832031 314.484375 579.800781 314.636719 579.808594 314.792969 C 579.8125 314.949219 579.851562 315.097656 579.921875 315.238281 C 580.035156 315.410156 580.15625 315.574219 580.261719 315.753906 C 581.148438 317.167969 581.457031 318.699219 581.191406 320.351562 C 581.046875 321.164062 580.929688 321.230469 580.164062 320.957031 C 577.347656 319.949219 574.488281 319.101562 571.578125 318.417969 C 569.175781 317.847656 566.746094 317.460938 564.285156 317.253906 C 562.230469 317.105469 560.175781 317.101562 558.152344 317.816406 C 557.40625 318.085938 557.191406 317.890625 557.292969 317.085938 C 557.359375 316.703125 557.359375 316.324219 557.292969 315.941406 C 557.226562 315.5625 557.097656 315.203125 556.902344 314.871094 C 556.710938 314.535156 556.464844 314.246094 556.167969 313.996094 C 555.875 313.75 555.542969 313.558594 555.183594 313.429688 C 554.328125 313.082031 553.503906 312.703125 552.671875 312.316406 C 548.660156 310.449219 544.617188 308.644531 540.605469 306.765625 C 539.925781 306.40625 539.214844 306.328125 538.476562 306.535156 C 537.367188 306.859375 536.796875 307.683594 536.398438 308.683594 C 536.320312 308.871094 536.398438 309.164062 536.0625 309.199219 C 536.089844 309.160156 536.128906 309.132812 536.136719 309.101562 Z M 536.136719 309.101562 " fill-opacity="1" fill-rule="nonzero"/><path fill="#ff4343" d="M 582.84375 301.355469 C 582.457031 301.355469 582.085938 301.277344 581.730469 301.128906 C 581.371094 300.980469 581.058594 300.765625 580.785156 300.492188 C 580.511719 300.214844 580.300781 299.898438 580.152344 299.539062 C 580.003906 299.179688 579.933594 298.808594 579.933594 298.417969 C 579.933594 298.03125 580.007812 297.65625 580.15625 297.296875 C 580.300781 296.9375 580.511719 296.621094 580.785156 296.347656 C 581.058594 296.074219 581.375 295.859375 581.730469 295.710938 C 582.089844 295.5625 582.460938 295.488281 582.847656 295.484375 C 583.234375 295.484375 583.605469 295.558594 583.964844 295.707031 C 584.324219 295.851562 584.640625 296.0625 584.914062 296.335938 C 585.1875 296.609375 585.402344 296.925781 585.550781 297.285156 C 585.699219 297.644531 585.777344 298.015625 585.777344 298.40625 C 585.777344 298.796875 585.707031 299.171875 585.558594 299.535156 C 585.410156 299.894531 585.199219 300.214844 584.921875 300.492188 C 584.648438 300.769531 584.328125 300.984375 583.96875 301.132812 C 583.609375 301.28125 583.234375 301.355469 582.84375 301.355469 Z M 582.84375 297.445312 C 582.582031 297.460938 582.363281 297.566406 582.183594 297.761719 C 582.007812 297.957031 581.921875 298.1875 581.929688 298.453125 C 581.941406 298.714844 582.039062 298.9375 582.230469 299.121094 C 582.417969 299.304688 582.644531 299.394531 582.910156 299.394531 C 583.171875 299.390625 583.398438 299.296875 583.585938 299.113281 C 583.773438 298.925781 583.867188 298.699219 583.871094 298.4375 C 583.875 298.296875 583.847656 298.167969 583.792969 298.039062 C 583.742188 297.914062 583.664062 297.804688 583.566406 297.710938 C 583.464844 297.617188 583.351562 297.546875 583.222656 297.5 C 583.09375 297.453125 582.960938 297.4375 582.824219 297.445312 Z M 582.84375 297.445312 " fill-opacity="1" fill-rule="nonzero"/><path fill="#ff4343" d="M 589.699219 308.203125 C 589.308594 308.207031 588.9375 308.136719 588.578125 307.988281 C 588.222656 307.84375 587.902344 307.632812 587.628906 307.363281 C 587.351562 307.089844 587.136719 306.773438 586.988281 306.417969 C 586.835938 306.058594 586.757812 305.6875 586.753906 305.300781 C 586.75 304.910156 586.820312 304.535156 586.964844 304.175781 C 587.109375 303.816406 587.316406 303.496094 587.585938 303.21875 C 587.855469 302.941406 588.171875 302.726562 588.527344 302.574219 C 588.882812 302.417969 589.253906 302.339844 589.640625 302.335938 C 590.027344 302.332031 590.398438 302.398438 590.757812 302.542969 C 591.117188 302.6875 591.4375 302.894531 591.714844 303.164062 C 591.992188 303.4375 592.207031 303.75 592.359375 304.105469 C 592.515625 304.460938 592.59375 304.835938 592.601562 305.222656 C 592.605469 305.613281 592.535156 305.992188 592.390625 306.355469 C 592.246094 306.71875 592.039062 307.039062 591.765625 307.320312 C 591.492188 307.597656 591.179688 307.816406 590.820312 307.96875 C 590.460938 308.121094 590.085938 308.199219 589.699219 308.203125 Z M 589.699219 304.296875 C 589.566406 304.296875 589.441406 304.320312 589.324219 304.371094 C 589.203125 304.421875 589.097656 304.496094 589.007812 304.589844 C 588.914062 304.683594 588.84375 304.789062 588.796875 304.910156 C 588.75 305.03125 588.726562 305.160156 588.726562 305.289062 C 588.730469 305.417969 588.753906 305.546875 588.808594 305.664062 C 588.859375 305.785156 588.933594 305.890625 589.027344 305.980469 C 589.121094 306.070312 589.226562 306.140625 589.347656 306.1875 C 589.46875 306.234375 589.59375 306.257812 589.726562 306.253906 C 589.855469 306.25 589.980469 306.222656 590.097656 306.171875 C 590.21875 306.117188 590.320312 306.042969 590.410156 305.949219 C 590.5 305.855469 590.570312 305.746094 590.617188 305.625 C 590.660156 305.5 590.683594 305.375 590.679688 305.242188 C 590.667969 304.972656 590.566406 304.746094 590.371094 304.5625 C 590.171875 304.375 589.941406 304.289062 589.671875 304.296875 Z M 589.699219 304.296875 " fill-opacity="1" fill-rule="nonzero"/><path fill="#ff4343" d="M 580.953125 308.210938 L 580.226562 308.210938 C 580.046875 308.210938 579.941406 308.210938 579.917969 307.960938 C 579.777344 306.464844 579.023438 305.242188 578.175781 304.0625 C 577.914062 303.691406 577.324219 303.398438 577.425781 302.976562 C 577.527344 302.550781 578.027344 302.292969 578.355469 301.941406 C 578.398438 301.902344 578.441406 301.859375 578.484375 301.8125 C 578.628906 301.644531 578.742188 301.683594 578.875 301.839844 C 580.234375 303.386719 581.390625 305.078125 581.769531 307.179688 C 581.957031 308.210938 581.945312 308.210938 580.953125 308.210938 Z M 580.953125 308.210938 " fill-opacity="1" fill-rule="nonzero"/><path fill="#ff4343" d="M 595.601562 310.167969 C 594.570312 310.167969 594.570312 310.167969 594.570312 309.136719 C 594.570312 308.210938 594.570312 308.210938 595.476562 308.210938 C 596.503906 308.210938 596.503906 308.210938 596.503906 309.242188 C 596.5 310.167969 596.5 310.167969 595.601562 310.167969 Z M 595.601562 310.167969 " fill-opacity="1" fill-rule="nonzero"/><path fill="#ff4343" d="M 584.777344 311.144531 C 583.832031 311.144531 583.832031 311.144531 583.832031 310.195312 C 583.832031 309.246094 583.832031 309.191406 584.859375 309.191406 C 585.886719 309.191406 585.804688 309.191406 585.804688 310.136719 C 585.804688 311.085938 585.78125 311.144531 584.777344 311.144531 Z M 584.777344 311.144531 " fill-opacity="1" fill-rule="nonzero"/><path fill="#ff4343" d="M 585.820312 319.953125 C 584.792969 319.953125 584.792969 319.953125 584.792969 318.953125 C 584.792969 317.953125 584.792969 318 585.730469 318 C 586.671875 318 586.757812 318 586.757812 319 C 586.757812 320 586.738281 319.953125 585.820312 319.953125 Z M 585.820312 319.953125 " fill-opacity="1" fill-rule="nonzero"/><path fill="#ff4343" d="M 563.492188 322.929688 C 563.695312 324.265625 564.097656 325.539062 564.699219 326.746094 C 563.992188 326.441406 563.457031 325.996094 562.855469 325.714844 C 562.507812 325.539062 562.222656 325.285156 562.011719 324.953125 C 561.796875 324.625 561.679688 324.261719 561.660156 323.867188 C 561.628906 323.660156 561.589844 323.464844 561.558594 323.265625 C 561.515625 323.125 561.503906 322.984375 561.523438 322.839844 C 561.542969 322.695312 561.589844 322.558594 561.664062 322.4375 C 561.742188 322.3125 561.835938 322.207031 561.957031 322.125 C 562.074219 322.042969 562.207031 321.988281 562.347656 321.960938 C 562.921875 321.824219 563.375 322.210938 563.492188 322.929688 Z M 563.492188 322.929688 " fill-opacity="1" fill-rule="nonzero"/><path fill="#ff4343" d="M 594.84375 333.585938 C 595.210938 333.128906 595.523438 332.628906 595.871094 332.144531 C 596.058594 332.292969 596.191406 332.480469 596.273438 332.703125 C 596.714844 333.546875 596.566406 334.007812 595.710938 334.40625 C 595.058594 334.699219 594.375 334.855469 593.65625 334.882812 C 594.09375 334.414062 594.496094 334.023438 594.84375 333.585938 Z M 594.84375 333.585938 " fill-opacity="1" fill-rule="nonzero"/><path fill="#ff4343" d="M 579.960938 328.761719 C 578.933594 328.761719 578.933594 328.761719 578.933594 327.757812 C 578.933594 326.75 578.933594 326.808594 579.878906 326.808594 C 580.824219 326.808594 580.90625 326.808594 580.90625 327.839844 C 580.90625 328.871094 580.90625 328.761719 579.960938 328.761719 Z M 579.960938 328.761719 " fill-opacity="1" fill-rule="nonzero"/><path fill="#ff4343" d="M 589.308594 333.683594 C 588.316406 334.539062 588.304688 334.527344 587.570312 333.425781 C 587.535156 333.351562 587.488281 333.285156 587.4375 333.222656 C 587.160156 332.945312 587.253906 332.773438 587.550781 332.570312 C 588.394531 332.0625 589.015625 331.359375 589.414062 330.453125 C 589.644531 329.804688 589.984375 329.609375 590.5 329.742188 L 590.964844 329.742188 C 591.691406 329.742188 591.695312 329.742188 591.480469 330.46875 C 591.09375 331.769531 590.367188 332.839844 589.308594 333.683594 Z M 589.308594 333.683594 " fill-opacity="1" fill-rule="nonzero"/></svg>